<?xml version="1.0" encoding="iso-8859-1"?>
<!-- Generator: Adobe Illustrator 19.0.0, SVG Export Plug-In . SVG Version: 6.00 Build 0)  -->
<svg version="1.1" id="Layer_1" xmlns="http://www.w3.org/2000/svg" xmlns:xlink="http://www.w3.org/1999/xlink" x="0px" y="0px"
	 viewBox="0 0 512 512" style="enable-background:new 0 0 512 512;" xml:space="preserve">
<g>
	<g>
		<g>
			<path d="M445.675,398.229C487.957,367.765,512,324.181,512,277.376c0-61.376-41.152-116.352-107.413-143.467
				c-5.397-2.219-11.669,0.384-13.909,5.824c-2.24,5.461,0.384,11.691,5.824,13.909c58.112,23.744,94.165,71.168,94.165,123.712
				c0,42.283-23.509,81.771-64.491,108.352c-4.565,2.944-6.165,8.853-3.733,13.717l9.728,19.456l-26.645-16.661
				c-2.901-1.813-6.528-2.133-9.664-0.853c-53.483,21.653-117.525,18.752-167.787-7.552c-5.227-2.731-11.669-0.704-14.4,4.501
				c-2.731,5.227-0.725,11.669,4.501,14.4c54.144,28.373,122.603,32.256,180.565,10.432l54.251,33.899
				c1.728,1.088,3.712,1.621,5.653,1.621c2.581,0,5.163-0.939,7.189-2.731c3.541-3.221,4.501-8.405,2.368-12.672L445.675,398.229z"
				/>
			<path d="M384,213.333c0-88.235-86.144-160-192-160s-192,71.765-192,160c0,46.805,24.043,90.389,66.325,120.853l-22.528,45.035
				c-2.133,4.267-1.173,9.451,2.368,12.672c2.005,1.835,4.565,2.773,7.168,2.773c1.941,0,3.925-0.533,5.675-1.643l54.251-33.899
				c25.024,9.429,51.477,14.208,78.741,14.208C297.835,373.333,384,301.568,384,213.333z M192,352
				c-26.347,0-51.883-4.928-75.861-14.656c-3.136-1.28-6.763-0.96-9.664,0.853l-26.645,16.661l9.728-19.456
				c2.432-4.843,0.832-10.773-3.733-13.717c-40.981-26.581-64.491-66.069-64.491-108.352c0-76.459,76.565-138.667,170.667-138.667
				s170.667,62.208,170.667,138.667S286.101,352,192,352z"/>
		</g>
	</g>
</g>
<g>
</g>
<g>
</g>
<g>
</g>
<g>
</g>
<g>
</g>
<g>
</g>
<g>
</g>
<g>
</g>
<g>
</g>
<g>
</g>
<g>
</g>
<g>
</g>
<g>
</g>
<g>
</g>
<g>
</g>
</svg>
