<?xml version="1.0" encoding="utf-8"?>
<!-- Svg Vector Icons : http://www.onlinewebfonts.com/icon -->
<!DOCTYPE svg PUBLIC "-//W3C//DTD SVG 1.1//EN" "http://www.w3.org/Graphics/SVG/1.1/DTD/svg11.dtd">
<svg version="1.1" xmlns="http://www.w3.org/2000/svg" xmlns:xlink="http://www.w3.org/1999/xlink" x="0px" y="0px" viewBox="0 0 1000 1000" enable-background="new 0 0 1000 1000" xml:space="preserve">
<metadata> Svg Vector Icons : http://www.onlinewebfonts.com/icon </metadata>
<g><g transform="translate(0.000000,511.000000) scale(0.100000,-0.100000)"><path d="M3791.9,4981.4c-384.4-82.6-726.5-326.7-916.8-651.6c-63.4-109.6-109.6-163.4-178.7-209.5c-221-146.1-411.3-384.4-524.7-655.4c-73-174.9-124.9-459.4-113.4-626.6l9.6-124.9l-146.1-90.3c-415.1-255.6-724.6-638.1-880.3-1089.8c-67.3-198-121.1-497.8-121.1-676.5c0-78.8-13.5-132.6-46.1-192.2c-73-132.6-155.7-355.6-205.7-555.4c-38.4-157.6-44.2-228.7-44.2-528.6c1.9-309.4,5.8-365.2,50-530.5c92.3-338.3,217.2-601.6,405.5-855.3l86.5-113.4l-19.2-105.7c-28.8-159.5-7.7-503.5,42.3-663.1c100-315.2,324.8-628.5,582.4-805.3c90.3-61.5,107.6-84.5,136.5-180.6c182.6-584.3,753.4-1009,1479.9-1099.4c234.5-30.7,522.8-15.4,732.3,38.4c301.7,75,649.6,290.2,807.2,497.8c32.7,42.3,61.5,76.9,67.3,76.9s48-46.1,94.2-103.8c234.5-294,666.9-493.9,1128.2-522.8c861.1-51.9,1647.1,417.1,1864.3,1112.8c28.8,96.1,46.1,119.2,136.5,180.6c257.6,176.8,482.4,490.1,582.4,805.3c51.9,165.3,73,511.3,40.3,661.2l-21.1,101.9l88.4,117.2c532.4,709.2,617,1658.7,217.2,2454.4c-44.2,88.4-53.8,138.4-63.5,307.5c-36.5,695.8-422.8,1333.9-1020.6,1685.6l-121.1,73l9.6,124.9c21.1,261.4-80.7,628.5-244.1,882.2c-88.4,138.4-263.3,315.2-392.1,401.7c-63.4,40.4-113.4,94.2-149.9,161.5c-142.2,259.5-342.1,445.9-620.8,582.4c-497.8,242.2-1059,173-1405-174.9l-123-123l-123,123C4608.7,4954.5,4187.8,5067.9,3791.9,4981.4z M4366.6,4447.1c182.6-90.3,294.1-257.6,349.8-526.6c42.3-201.8,42.3-7297.8,0-7480.4c-115.3-482.4-549.7-757.2-1151.3-726.5c-130.7,5.8-269.1,26.9-357.5,51.9c-436.3,124.9-768.8,432.4-841.8,780.3c-40.4,190.3,40.4,524.7,174.9,720.7c244.1,357.5,743.8,434.4,1045.6,163.4c115.3-103.8,174.9-223,201.8-392.1c25-163.4,44.2-203.7,121.1-244.1c86.5-48,184.5-26.9,251.8,53.8c48,57.7,50,69.2,40.4,205.6c-19.2,253.7-132.6,494-313.3,665l-82.6,76.9l113.4,121.1c213.3,222.9,342.1,607.3,269.1,797.6c-44.2,117.2-230.6,153.8-321,63.4c-36.5-36.5-55.7-84.6-75-196.1c-34.6-197.9-84.6-296-211.4-411.3c-124.9-113.4-213.3-144.2-509.3-173c-526.6-50-884.1-346-1049.4-864.9l-51.9-163.4l-90.3,101.9c-99.9,111.5-196,292.1-226.8,424.7c-30.8,130.7-25,382.5,9.6,499.7c50,165.3,30.8,247.9-86.5,378.7C1253-1267,1097.3-826.8,1118.4-332.9c11.5,305.6,59.6,484.4,196,759.2c105.7,209.5,105.7,213.3,105.7,386.3c0,309.4,73,584.3,224.9,843.8c107.6,186.4,365.2,449.7,540.1,549.7l119.2,69.2l140.3-136.5c151.8-151.8,330.6-255.6,528.5-311.4l119.2-32.7v-126.9c0-69.2,9.6-165.3,21.1-213.3c53.8-236.4,244.1-499.7,359.4-499.7c86.5,0,151.8,30.7,188.4,88.4c55.7,82.6,44.2,161.4-44.2,292.1c-142.2,213.3-155.7,428.6-40.4,657.3c78.8,153.8,198,247.9,384.4,307.5c142.2,44.2,207.6,111.5,207.6,211.4c0,71.1-63.4,163.4-134.5,192.2c-173,71.1-618.9-171.1-768.8-420.9c-46.1-76.9-51.9-80.7-124.9-69.2c-123,17.3-344,134.5-420.9,224.9c-107.6,123-148,226.8-159.5,395.9c-25,376.7,182.6,753.4,513.2,939.8c96.1,53.8,113.4,73,188.3,222.9c94.2,190.3,246,344,415.1,424.8c151.8,71.1,230.6,86.5,417.1,82.7C4228.2,4499,4278.2,4489.4,4366.6,4447.1z M6127.1,4489.4c255.6-57.7,474.7-238.3,601.6-492c75-149.9,92.3-169.1,188.4-222.9c334.4-186.4,540.1-567,511.2-943.7c-11.5-169.1-51.9-269.1-157.6-392.1c-76.9-90.3-297.9-207.6-420.9-224.9c-73-11.5-78.8-7.7-124.9,69.2c-149.9,249.9-595.8,492-768.8,420.9c-71.1-28.8-134.5-121.1-134.5-192.2c0-94.2,67.3-169.1,178.7-201.8c155.7-44.2,299.9-140.3,372.9-246c155.7-230.6,157.6-494,3.9-718.8c-82.7-119.2-98.1-173-75-247.9c30.7-90.3,103.8-142.2,197.9-142.2c67.3,0,88.4,11.5,159.6,84.6c88.4,92.3,186.4,278.7,217.2,415.2c11.5,48,21.1,144.1,21.1,213.3v126.9l119.2,32.7c198,55.7,376.7,159.5,528.5,311.4l140.3,136.5l119.1-69.2c174.9-100,432.5-363.3,540.1-549.7c151.8-259.5,224.9-534.3,224.9-843.8c0-173,0-176.8,105.7-386.3c132.6-267.1,182.6-455.5,196-743.8c23.1-495.9-111.5-889.9-438.2-1282c-148-180.7-159.5-226.8-103.8-413.2c36.5-119.2,36.5-374.8,0-509.3c-38.4-148-117.2-294.1-221-409.4l-90.4-100l-42.3,142.2c-69.2,228.7-167.2,395.9-328.7,557.4c-222.9,223-426.7,307.5-818.8,342.1c-219.1,19.2-326.7,59.6-436.3,167.2c-107.6,103.8-163.4,215.3-188.3,374.8c-26.9,173-55.7,224.9-146.1,261.4c-130.7,55.7-253.7-23.1-269.1-174.9c-25-217.2,94.2-526.6,282.6-722.7l113.4-121.1l-82.7-76.9c-180.7-171-294.1-411.3-313.3-665c-9.6-136.5-7.7-148,40.4-205.6c53.8-65.4,149.9-96.1,219.1-75c80.8,26.9,132.6,103.8,146.1,217.2c21.1,196,65.3,294,182.6,411.3c76.9,76.9,140.3,119.2,222.9,149.9c215.3,82.7,507.4,30.7,711.1-124.9c211.4-161.5,372.9-628.5,309.4-897.5c-82.7-342.1-409.4-641.9-838-763c-209.5-59.6-524.7-71.1-730.4-30.7c-411.3,82.7-691.9,338.3-778.4,705.4c-42.3,180.7-44.2,7259.3-1.9,7480.4c75,384.4,294.1,586.2,645.8,588.1C5986.8,4508.6,6081,4500.9,6127.1,4489.4z"/><path d="M1952.6,532c-73-57.7-99.9-153.8-63.4-236.4c32.7-80.7,75-105.7,238.3-140.3C2335,113,2477.3,3.5,2577.2-184.9c36.5-67.3,44.2-111.5,44.2-263.3c0-171.1-3.8-192.2-65.3-309.4c-78.8-153.8-73-236.4,19.2-313.3c107.6-90.3,238.3-59.6,324.8,76.9c94.2,149.9,142.2,321,142.2,517c1.9,96.1-1.9,199.9-7.7,230.6c-9.6,55.7-5.8,59.6,96.1,92.3c73,25,163.4,36.5,288.3,36.5c155.7,0,209.5-7.7,351.7-57.7c138.4-48,178.7-55.7,232.6-40.4c142.2,38.4,194.1,207.6,98,321c-53.8,63.4-247.9,142.2-447.8,178.7c-180.7,34.6-480.5,11.5-666.9-48l-153.8-48l-96.1,92.2c-51.9,51.9-138.4,121.1-192.2,153.8C2340.8,562.8,2050.6,608.9,1952.6,532z"/><path d="M7587.8,899.1c-30.8-30.8-55.8-73-55.8-92.3c-3.9-309.4-55.7-513.2-173-693.8L7282.2-6.1L7191.9,40c-151.8,75-288.3,107.6-467,107.6c-221,0-353.7-40.4-405.5-121.1c-51.9-80.8-38.4-194.1,30.7-261.4c44.2-44.2,61.5-50,159.5-42.3c365.2,25,494-7.7,647.7-173c144.2-153.8,173-238.3,169.1-488.2c-3.8-238.3,11.6-282.5,119.2-328.7c53.8-21.1,78.8-23,136.5-1.9c111.5,36.5,149.9,117.2,157.6,340.2c9.6,213.3-25,372.9-109.5,530.5l-53.8,101.9l76.9,101.9c92.3,123,194.1,330.6,236.4,486.3c17.3,63.4,34.6,207.6,40.4,321l11.5,205.6l-69.2,69.2c-55.8,55.7-80.7,67.3-148,67.3C7660.8,954.9,7632,943.3,7587.8,899.1z"/></g></g>
</svg>