<?xml version="1.0"?>
<svg xmlns="http://www.w3.org/2000/svg" viewBox="-669 291 50 50">
    <path style="text-indent:0;text-align:start;line-height:normal;text-transform:none;block-progression:tb;-inkscape-font-specification:Sans" d="M 34.25 2.09375 L 33.6875 2.9375 L 24.8125 15.71875 L 17 18.03125 L 16.96875 18.0625 L 16.9375 18.0625 C 15.94938 18.43305 15.18277 19.08162 14.59375 19.90625 L 14.5625 19.9375 L 14.5625 19.96875 L 7.8125 30.375 L 7.5625 29.5625 L 6.625 29.84375 L 1 31.53125 L 0.0625 31.84375 L 0.34375 32.78125 L 4.84375 47.875 L 5.125 48.84375 L 6.09375 48.5625 L 11.6875 46.84375 L 12.65625 46.5625 L 12.34375 45.625 L 11.78125 43.71875 L 19.625 41.96875 C 22.03446 41.42115 24.23013 40.1193 25.78125 38.125 L 26.15625 37.65625 L 29.9375 40.3125 L 30.75 40.90625 L 31.3125 40.0625 L 49.4375 13.875 L 50 13.0625 L 49.15625 12.46875 L 35.0625 2.6875 L 34.25 2.09375 z M 34.75 4.875 L 47.21875 13.5625 L 40.0625 23.90625 C 40.981041 20.981837 39.574441 17.476646 36.59375 15.40625 C 36.58775 15.40225 36.59975 15.3792 36.59375 15.375 C 36.58575 15.369 36.5704 15.381 36.5625 15.375 C 34.82461 14.15014 32.7587 13.6356 30.875 13.8125 C 29.795401 13.913886 28.784666 14.257212 27.90625 14.8125 L 34.75 4.875 z M 38.9375 10.8125 C 38.391785 10.808695 37.863127 11.078567 37.53125 11.5625 C 37.00024 12.336802 37.194448 13.37524 37.96875 13.90625 C 38.743044 14.437254 39.81274 14.243052 40.34375 13.46875 C 40.874754 12.694456 40.680544 11.656004 39.90625 11.125 C 39.615887 10.925871 39.264929 10.814783 38.9375 10.8125 z M 31.125 15.78125 C 32.506341 15.656764 34.049265 16.036975 35.40625 17 L 35.4375 17.03125 C 38.27102 18.97929 39.11258 22.2853 37.6875 24.34375 L 37.65625 24.34375 C 36.938255 25.453379 35.739574 26.053489 34.25 26.125 C 34.298952 24.982021 33.895302 23.839316 33 23 C 32.994 22.994 32.97505 23.006 32.96875 23 C 31.605034 21.654137 29.480837 21.423986 27.90625 22.46875 C 26.95157 20.752464 26.881695 18.89222 27.8125 17.5625 C 28.5239 16.53492 29.743659 15.905736 31.125 15.78125 z M 23.03125 18.34375 L 18.25 25.875 L 17.71875 26.75 L 18.59375 27.25 L 21.78125 29.15625 L 22.375 29.53125 L 22.9375 29.0625 L 28 24.96875 A 1.0127363 1.0127363 0 0 0 28.59375 24.46875 L 28.84375 24.28125 C 29.64075 23.61708 30.85802 23.67052 31.59375 24.40625 L 31.59375 24.4375 L 31.625 24.4375 C 32.44483 25.18901 32.52087 26.36037 31.8125 27.28125 L 24.21875 36.875 C 22.96987 38.4807 21.17804 39.57885 19.1875 40.03125 L 11.21875 41.8125 L 8.40625 32.375 L 8.71875 32.25 L 9.0625 32.125 L 9.25 31.84375 L 16.21875 21.09375 C 16.61452 20.53967 17.01833 20.19776 17.59375 19.96875 C 17.61585 19.95975 17.63365 19.9459 17.65625 19.9375 L 23.03125 18.34375 z M 25.3125 18.46875 C 24.925165 20.208132 25.317385 22.094203 26.3125 23.75 L 22.21875 27.09375 L 20.5 26.0625 L 25.3125 18.46875 z M 38.0625 26.8125 L 30.25 38.125 L 27.375 36.09375 L 33.375 28.53125 L 33.375 28.5 L 33.40625 28.5 C 33.49981 28.378372 33.577826 28.253586 33.65625 28.125 C 35.280085 28.171132 36.847909 27.753044 38.0625 26.8125 z M 6.21875 32.03125 L 10.15625 45.25 L 6.46875 46.375 L 2.53125 33.1875 L 6.21875 32.03125 z" transform="translate(-669 291)" overflow="visible" font-family="Sans"/>
</svg>
