<?xml version="1.0" encoding="utf-8"?>
<!-- Svg Vector Icons : http://www.onlinewebfonts.com/icon -->
<!DOCTYPE svg PUBLIC "-//W3C//DTD SVG 1.1//EN" "http://www.w3.org/Graphics/SVG/1.1/DTD/svg11.dtd">
<svg version="1.1" xmlns="http://www.w3.org/2000/svg" xmlns:xlink="http://www.w3.org/1999/xlink" x="0px" y="0px" viewBox="0 0 1000 1000" enable-background="new 0 0 1000 1000" xml:space="preserve">
<metadata> Svg Vector Icons : http://www.onlinewebfonts.com/icon </metadata>
<g><g><g id="_x33__x5F_3"><g><path d="M979.3,928.4L718.5,667.2c57.9-69.6,92.8-159,92.8-256.7c0-221.6-179.4-401.3-400.6-401.3C189.4,9.2,10,188.9,10,410.5c0,221.6,179.4,401.3,400.7,401.3c97.5,0,186.8-34.9,256.3-92.9l260.8,261.3c7.1,7.1,16.5,10.7,25.8,10.7c9.3,0,18.7-3.6,25.8-10.7C993.6,965.8,993.6,942.7,979.3,928.4z M410.7,738.7C230,738.7,83,591.4,83,410.5c0-181,147-328.2,327.7-328.2c180.6,0,327.7,147.2,327.7,328.2C738.3,591.4,591.3,738.7,410.7,738.7z"/></g></g></g><g></g><g></g><g></g><g></g><g></g><g></g><g></g><g></g><g></g><g></g><g></g><g></g><g></g><g></g><g></g></g>
</svg>