<?xml version='1.0' encoding='iso-8859-1'?>
<!DOCTYPE svg PUBLIC '-//W3C//DTD SVG 1.1//EN' 'http://www.w3.org/Graphics/SVG/1.1/DTD/svg11.dtd'>
<svg version="1.1" xmlns="http://www.w3.org/2000/svg" viewBox="0 0 269.044 269.044" xmlns:xlink="http://www.w3.org/1999/xlink" enable-background="new 0 0 269.044 269.044">
  <g>
    <path d="m220.522,167.599h-22.223l-17.039-89.786c-0.537-2.832-3.012-4.882-5.895-4.882h-25.75c-2.841,0-5.293,1.993-5.873,4.774l-13.607,65.189-9.612-50.654c-0.537-2.832-3.012-4.882-5.895-4.882h-21.825c-2.841,0-5.293,1.993-5.873,4.773l-15.753,75.466h-22.655c-3.313,0-6,2.687-6,6v89.333c0,3.313 2.687,6 6,6h52.77c0.372,0.072 0.754,0.112 1.146,0.112h64.168c0.392,0 0.775-0.041 1.146-0.112h52.77c3.313,0 6-2.687 6-6v-89.333c0-3.312-2.687-5.998-6-5.998zm-112.084,89.445v-21.66h52.168v21.66h-52.168zm106.084-.112h-41.916v-21.548h2.486c3.313,0 6-2.687 6-6s-2.687-6-6-6h-81.141c-3.313,0-6,2.687-6,6s2.687,6 6,6h2.487v21.548h-41.916v-77.333h160v77.333zm-104.862-157.573l12.95,68.239h-39.175l14.245-68.239h11.98zm60.737-14.427l15.688,82.667h-48.849l17.256-82.667h15.905z"/>
    <path d="m161.592,66c3.313,0 6-2.687 6-6 0-2.59 0.494-5.062 1.355-7.355 2.128-5.664 6.625-10.161 12.29-12.29 2.293-0.862 4.765-1.355 7.355-1.355 18.196,0 33-14.804 33-33 0-3.313-2.687-6-6-6s-6,2.687-6,6c0,2.591-0.494,5.063-1.356,7.356-2.128,5.663-6.625,10.159-12.288,12.288-2.293,0.862-4.766,1.356-7.356,1.356-18.196,0-33,14.804-33,33 2.84217e-14,3.313 2.687,6 6,6z"/>
    <path d="m102.955,73.396c3.313,0 6-2.687 6-6 0-2.591 0.494-5.063 1.356-7.356 2.128-5.663 6.625-10.16 12.289-12.289 2.293-0.862 4.765-1.356 7.356-1.356 18.196,0 33-14.804 33-33 0-3.313-2.687-6-6-6s-6,2.687-6,6c0,2.591-0.494,5.063-1.356,7.356-2.128,5.663-6.625,10.16-12.288,12.288-2.293,0.862-4.765,1.356-7.356,1.356-18.196,0-33,14.804-33,33-0.001,3.314 2.685,6.001 5.999,6.001z"/>
    <path d="m79.544,193.718h-8.614c-3.313,0-6,2.687-6,6s2.687,6 6,6h8.614c3.313,0 6-2.687 6-6s-2.686-6-6-6z"/>
    <path d="m109.186,193.718h-8.613c-3.313,0-6,2.687-6,6s2.687,6 6,6h8.613c3.313,0 6-2.687 6-6s-2.686-6-6-6z"/>
    <path d="m138.829,193.718h-8.614c-3.313,0-6,2.687-6,6s2.687,6 6,6h8.614c3.313,0 6-2.687 6-6s-2.687-6-6-6z"/>
    <path d="m168.471,193.718h-8.614c-3.313,0-6,2.687-6,6s2.687,6 6,6h8.614c3.313,0 6-2.687 6-6s-2.686-6-6-6z"/>
    <path d="m183.499,199.718c0,3.313 2.687,6 6,6h8.614c3.313,0 6-2.687 6-6s-2.687-6-6-6h-8.614c-3.314,0-6,2.686-6,6z"/>
  </g>
</svg>
