<?xml version="1.0" encoding="utf-8"?>
<!-- Svg Vector Icons : http://www.onlinewebfonts.com/icon -->
<!DOCTYPE svg PUBLIC "-//W3C//DTD SVG 1.1//EN" "http://www.w3.org/Graphics/SVG/1.1/DTD/svg11.dtd">
<svg version="1.1" xmlns="http://www.w3.org/2000/svg" xmlns:xlink="http://www.w3.org/1999/xlink" x="0px" y="0px" viewBox="0 0 1000 1000" enable-background="new 0 0 1000 1000" xml:space="preserve">
<metadata> Svg Vector Icons : http://www.onlinewebfonts.com/icon </metadata>
<g><path d="M978.8,269.2c-0.6,142.5-114.6,255.8-257,254.4c-40.3-0.4-78.6-10.3-114.6-28.4c-18.7-9.4-27.1-8-41.8,6.7c-43.6,43.4-87.2,86.8-130.8,130.3c-9.5,9.4-9.7,13.8-0.5,24.1c14,15.7,28.6,30.8,42.4,46.7c14.8,17.1,18.4,37,9.5,57.7c-8.7,20.3-25.2,31-47.4,32.7c-13.5,1-24.5-3.9-33.9-13.5c-15.1-15.2-30.4-30.1-45.8-45c-10.1-9.8-16.4-10.3-24.6-2.4c-8,7.8-7.4,15.8,2.3,25.6c29.1,29.2,58.4,58.3,87.6,87.6c24.2,24.2,25.6,57.2,3.5,79.7c-22.2,22.7-56.3,21.7-80.6-2.5c-28.5-28.3-56.8-56.7-85.2-85.1c-2.4-2.4-4.8-4.9-7.6-7c-6-4.6-12.7-6.4-18.7-0.5c-6.4,6.3-4.8,13.6,0.7,19.4c13.7,14.4,27.7,28.5,42.1,42.3c15.4,14.8,23.4,32.1,19.2,53.5c-4.1,20.9-16.9,35-37,41.5c-20.2,6.5-38.7,2.3-54.2-12.3c-14.7-13.9-28.7-28.6-43.1-42.8c-12-11.9-18-11.9-29.8-0.2c-6.8,6.7-13.4,13.6-20.3,20.2c-21.2,20.6-53.3,20-75.2-1.3c-21.3-20.7-22.6-52.7-3-74.3c3.1-3.4,6.4-6.5,9.7-9.8c146.5-146.5,292.9-293,439.4-439.5c17-17,18-23.7,7.4-45.5C417.2,230,501.9,53,666.6,16.1c145.3-32.6,290.7,69.7,309.2,217.8C977.2,245.6,977.8,257.4,978.8,269.2z M721.4,415c81.7,0.5,147.8-65.7,147.9-147.9c0.1-81.9-65.9-148.3-147.5-148.6c-81.6-0.2-148,65.8-148.4,147.6C572.9,348.6,638.5,414.5,721.4,415z"/></g>
</svg>