<?xml version="1.0" encoding="iso-8859-1"?>
<!-- Generator: Adobe Illustrator 19.0.0, SVG Export Plug-In . SVG Version: 6.00 Build 0)  -->
<svg version="1.1" id="Capa_1" xmlns="http://www.w3.org/2000/svg" xmlns:xlink="http://www.w3.org/1999/xlink" x="0px" y="0px"
	 viewBox="0 0 512 512" style="enable-background:new 0 0 512 512;" xml:space="preserve">
<g>
	<g>
		<path d="M512,358.497v-29.999h-27.666V223.909c16.679-13.806,27.322-34.657,27.322-57.949v-28.954L446.158,19.172H65.878
			L0,136.986v28.974c0,23.292,10.645,44.143,27.322,57.949v104.59H0.01v29.999h27.312v104.331H0.01v29.999h511.989v-29.999h-27.666
			V358.497H512z M428.511,49.171l51.696,93.004h-88.965h-1.219l-19.541-93.004H428.511z M270.828,49.171h69l19.54,93.004h-88.539
			V49.171z M360.816,172.174c-3.036,21.999-21.962,38.993-44.781,38.993s-41.745-16.995-44.781-38.993H360.816z M255.828,210.979
			c13.73,18.315,35.607,30.187,60.207,30.187s46.477-11.873,60.207-30.187c4.036,5.383,8.787,10.195,14.094,14.328v103.192h-268.66
			V225.028c5.163-4.07,9.794-8.786,13.74-14.049c13.73,18.315,35.607,30.187,60.207,30.187
			C220.22,241.167,242.098,229.294,255.828,210.979z M181.774,49.171h59.055v93.004H153.35L181.774,49.171z M240.403,172.174
			c-3.037,21.999-21.962,38.993-44.782,38.993s-41.745-16.995-44.781-38.993H240.403z M83.474,49.171h66.931l-28.425,93.004h-1.565
			H31.469L83.474,49.171z M30.425,172.174h89.563c-3.037,21.999-21.961,38.993-44.782,38.993
			C52.386,211.167,33.461,194.173,30.425,172.174z M91.675,239.329v89.169H57.322V239c5.737,1.406,11.722,2.167,17.885,2.167
			C80.864,241.167,86.371,240.519,91.675,239.329z M454.334,462.828H57.322V358.497h397.012V462.828z M454.334,328.498h-33.999
			V239.41c5.195,1.139,10.583,1.757,16.115,1.757c6.163,0,12.148-0.761,17.885-2.167V328.498z M436.45,211.167
			c-22.82,0-41.746-16.995-44.782-38.993h89.563C478.195,194.173,459.269,211.167,436.45,211.167z"/>
	</g>
</g>
<g>
	<g>
		<rect x="186.676" y="395.162" width="138.667" height="29.999"/>
	</g>
</g>
<g>
</g>
<g>
</g>
<g>
</g>
<g>
</g>
<g>
</g>
<g>
</g>
<g>
</g>
<g>
</g>
<g>
</g>
<g>
</g>
<g>
</g>
<g>
</g>
<g>
</g>
<g>
</g>
<g>
</g>
</svg>
