<?xml version="1.0" encoding="utf-8"?>
<!-- Svg Vector Icons : http://www.onlinewebfonts.com/icon -->
<!DOCTYPE svg PUBLIC "-//W3C//DTD SVG 1.1//EN" "http://www.w3.org/Graphics/SVG/1.1/DTD/svg11.dtd">
<svg version="1.1" xmlns="http://www.w3.org/2000/svg" xmlns:xlink="http://www.w3.org/1999/xlink" x="0px" y="0px" viewBox="0 0 1000 1000" enable-background="new 0 0 1000 1000" xml:space="preserve">
<metadata> Svg Vector Icons : http://www.onlinewebfonts.com/icon </metadata>
<g><path d="M415.4,25.4C483-0.6,562.3,6.6,624,44.6c59,35.4,101.3,97.4,112.1,165.4c3.6,19.8,3.5,40,3.4,60.1c0,36.7,0,73.4,0,110.1c22.4,0.1,44.8-0.2,67.3,0.1c26.1,0.3,50.8,18.2,59.4,42.8c4.5,11.5,4.1,24,4.1,36.1c0,154.6,0,309.2,0,463.8c0.6,23.9-12.8,47.6-34,58.8c-10.8,6.1-23.3,8.3-35.5,8.1c-201.4,0-402.8,0-604.2,0c-16.1,0.1-32.3-5.5-44.5-16.3c-14.4-12.6-22.7-31.5-22.3-50.6c0-152.5,0-304.9,0-457.4c0.1-15.4-1.3-31.7,5.4-46.1c9.6-22.5,32.6-38.6,57.2-39.3c22.7-0.4,45.4,0,68.1-0.2c0-33.9,0-67.8,0-101.7c0-23.4-0.5-46.9,3.7-70C277.5,126.3,337.4,54.1,415.4,25.4z M396.6,83c-43.3,26.9-75.6,71.3-87.1,121.1c-6.7,26.4-5.3,53.7-5.5,80.7c0,31.8,0,63.6,0,95.4c130.7,0,261.3,0,392,0c-0.1-44.6,0.3-89.2-0.2-133.8c-0.5-52.4-23.4-104.1-61.9-139.7c-32.8-31.1-76.8-50-121.9-52.6C471.8,51.4,430.8,61.6,396.6,83z M190.8,424.2c-11.2,1.8-18.5,13.3-17.5,24.2c0,158.2-0.1,316.4,0,474.5c-1,12.7,10.3,24.2,23,23.3c199.3,0.2,398.6,0,597.9,0.1c7.9-0.1,16.8,0.9,23.4-4.3c6.9-4.7,9.5-13.3,9.1-21.3c0-157.4,0-314.8,0-472.2c0.3-7.9-2.5-16.4-9.4-20.9c-7.3-5.3-16.8-3.9-25.2-4.1c-192.9,0.1-385.7,0-578.6,0C206,423.8,198.4,423.2,190.8,424.2z M452,597.4c17.5-19.7,47.4-26.5,71.7-16.6c22.6,8.6,39.4,30.7,41.2,55c2,20.1-6.6,40.4-21.3,54c-0.1,18.2,0,36.4,0,54.5c0,7.1-0.2,14.3-2.8,21c-5.5,15.1-19.9,26.7-35.9,28.2c-17.4,2.2-35.4-7.3-43.3-22.9c-7.3-13.3-4.7-28.9-5.1-43.3c-0.2-12.2,0.3-24.4-0.2-36.6c-5.1-7.4-12.1-13.8-15.5-22.4C429.9,645.1,434.5,616,452,597.4z"/></g>
</svg>