<?xml version="1.0" encoding="iso-8859-1"?>
<!-- Generator: Adobe Illustrator 18.0.0, SVG Export Plug-In . SVG Version: 6.00 Build 0)  -->
<!DOCTYPE svg PUBLIC "-//W3C//DTD SVG 1.1//EN" "http://www.w3.org/Graphics/SVG/1.1/DTD/svg11.dtd">
<svg version="1.1" id="Capa_1" xmlns="http://www.w3.org/2000/svg" xmlns:xlink="http://www.w3.org/1999/xlink" x="0px" y="0px"
	 viewBox="0 0 385.787 385.787" style="enable-background:new 0 0 385.787 385.787;" xml:space="preserve">
<g id="oscar">
	<path d="M238.271,350.674v-62.7c0-3.313-2.687-6-6-6h-19.08l7.447-131.659c5.656-2.055,9.851-7.241,10.382-13.522l11.486-64.776
		c0.041-0.228,0.067-0.457,0.082-0.688c0.188-3.128,0.524-8.862-31.037-23.277l2.672-26.582l0.03-0.6
		C214.252,9.362,204.89,0,193.383,0h-0.301c-11.507,0-20.869,9.362-20.869,20.869l2.676,26.885
		c-32.217,14.634-31.879,20.424-31.69,23.574c0.014,0.23,0.041,0.46,0.082,0.688l11.487,64.776
		c0.531,6.281,4.725,11.467,10.382,13.522l7.447,131.659h-19.08c-3.313,0-6,2.687-6,6v62.7H137.49l-6.077,35.113h122.96
		l-6.077-35.113H238.271z M177.223,151.273h31.34l-7.321,129.434h-16.698L177.223,151.273z M193.082,12h0.301
		c4.803,0,8.726,3.837,8.865,8.606l-2.547,25.35h-12.936l-2.547-25.35C184.357,15.837,188.28,12,193.082,12z M155.486,72.114
		c3.641-3.151,15.494-9.435,25.971-14.158h22.875c10.475,4.722,22.329,11.005,25.97,14.157l-11.151,62.885
		c-0.041,0.228-0.067,0.457-0.082,0.688c-0.121,2.012-1.794,3.588-3.81,3.588h-44.731c-2.015,0-3.689-1.576-3.81-3.588
		c-0.014-0.23-0.041-0.46-0.082-0.688L155.486,72.114z M159.517,310.974h66.754v37.585h-66.754V310.974z M226.271,293.974v5h-66.754
		v-5H226.271z M145.668,373.787l1.923-11.113h90.604l1.923,11.113H145.668z"/>
</g>
<g>
</g>
<g>
</g>
<g>
</g>
<g>
</g>
<g>
</g>
<g>
</g>
<g>
</g>
<g>
</g>
<g>
</g>
<g>
</g>
<g>
</g>
<g>
</g>
<g>
</g>
<g>
</g>
<g>
</g>
</svg>
