<?xml version="1.0" encoding="iso-8859-1"?>
<!-- Generator: Adobe Illustrator 19.0.0, SVG Export Plug-In . SVG Version: 6.00 Build 0)  -->
<svg version="1.1" id="Layer_1" xmlns="http://www.w3.org/2000/svg" xmlns:xlink="http://www.w3.org/1999/xlink" x="0px" y="0px"
	 viewBox="0 0 210.414 210.414" style="enable-background:new 0 0 210.414 210.414;" xml:space="preserve">
<g>
	<g>
		<path d="M105.207,0C47.196,0,0,47.196,0,105.207c0,58.011,47.196,105.207,105.207,105.207
			c58.011,0,105.207-47.196,105.207-105.207C210.414,47.196,163.218,0,105.207,0z M38.868,176.451
			c0.022-0.166,0.098-0.313,0.098-0.485c0-13.786,11.956-20.012,23.889-20.103c2.696,0.37,22.152,3.005,36.137,3.716l-5.063,10.127
			c-0.381,0.761-0.502,1.625-0.343,2.462l5.673,30.254C75.994,201.013,54.916,191.404,38.868,176.451z M73.818,72.891
			c-0.27-1.541-0.407-3.124-0.407-4.703c0-16.115,14.197-29.224,31.652-29.224c17.451,0,31.648,13.109,31.648,29.224
			c0,1.575-0.137,3.162-0.407,4.715c-0.099,0.563-0.069,1.142,0.08,1.693c1.416,5.171,2.138,10.617,2.15,16.187
			c0.004,2.123,1.914,3.87,4.037,3.904c0.883,0.125,1.476,0.913,1.351,1.796l-1.663,11.823c-0.08,0.571-0.422,0.906-0.616,1.05
			c-0.194,0.152-0.601,0.381-1.191,0.3c-0.129-0.015-0.255-0.049-0.381-0.103c-0.982-0.403-2.082-0.392-3.056,0.03
			c-0.97,0.426-1.728,1.229-2.093,2.222c-2.237,6.073-5.487,11.503-9.395,15.704c-0.674,0.723-1.047,1.67-1.047,2.656v20.556
			c-6.98,0.687-14.199,1.24-19.371,1.24c-5.211,0-12.472-0.562-19.468-1.257v-20.54c-0.001-0.98-0.374-1.928-1.043-2.651
			c-3.931-4.224-7.192-9.684-9.425-15.788c-0.365-0.997-1.313-1.75-2.287-2.177c-0.963-0.426-2.264-0.392-3.246,0.015
			c-0.556,0.091-0.948-0.152-1.138-0.293c-0.19-0.145-0.521-0.468-0.597-1.024L66.257,96.53c-0.08-0.556,0.148-0.959,0.293-1.149
			c0.171-0.228,0.487-0.521,1.21-0.609c2.123-0.038,3.828-1.769,3.828-3.893c0.004-5.597,0.727-11.073,2.154-16.283
			C73.894,74.04,73.921,73.458,73.818,72.891z M106.181,197.07l-4.696-25.051l4.696-9.391l4.696,9.391L106.181,197.07z
			 M113.132,202.27l5.644-30.103c0.16-0.837,0.038-1.701-0.342-2.462l-5.122-10.243c13.805-0.845,31.665-3.247,34.243-3.6
			c12.12,0.125,22.295,8.927,23.726,20.578c0.009,0.073,0.051,0.131,0.064,0.202C155.78,191.063,135.515,200.458,113.132,202.27z
			 M177.825,170.048c-4.043-12.845-16.303-21.979-30.528-21.979c-0.179,0-0.358,0.011-0.533,0.038
			c-0.133,0.018-6.453,0.885-14.49,1.792v-18.234c3.501-4.03,6.492-8.87,8.782-14.197c1.899-0.069,3.729-0.715,5.278-1.887
			c2.002-1.507,3.291-3.706,3.642-6.187l1.663-11.819c0.59-4.193-1.705-8.143-5.381-9.836c-0.217-4.912-0.932-9.73-2.135-14.369
			c0.251-1.713,0.381-3.451,0.381-5.179c0-20.411-17.694-37.017-39.441-37.017c-21.751,0-39.445,16.606-39.445,37.017
			c0,1.735,0.129,3.474,0.384,5.183c-1.214,4.673-1.929,9.521-2.142,14.464c-1.389,0.639-2.603,1.614-3.547,2.869
			c-1.492,1.99-2.119,4.444-1.773,6.914l1.648,11.713c0.346,2.474,1.632,4.661,3.623,6.161c1.534,1.157,3.341,1.8,5.217,1.876
			c2.291,5.362,5.297,10.24,8.821,14.293v18.214c-7.893-0.899-14.063-1.75-14.194-1.768c-0.175-0.027-0.358-0.038-0.537-0.038
			c-16.15,0-28.091,8.472-31.151,21.26C16.936,152.184,7.794,129.751,7.794,105.21c0-53.715,43.699-97.414,97.414-97.414
			c53.715,0,97.414,43.699,97.414,97.414C202.621,130.089,193.231,152.812,177.825,170.048z"/>
	</g>
</g>
<g>
</g>
<g>
</g>
<g>
</g>
<g>
</g>
<g>
</g>
<g>
</g>
<g>
</g>
<g>
</g>
<g>
</g>
<g>
</g>
<g>
</g>
<g>
</g>
<g>
</g>
<g>
</g>
<g>
</g>
</svg>
