<?xml version="1.0" encoding="utf-8"?>
<!-- Svg Vector Icons : http://www.onlinewebfonts.com/icon -->
<!DOCTYPE svg PUBLIC "-//W3C//DTD SVG 1.1//EN" "http://www.w3.org/Graphics/SVG/1.1/DTD/svg11.dtd">
<svg version="1.1" xmlns="http://www.w3.org/2000/svg" xmlns:xlink="http://www.w3.org/1999/xlink" x="0px" y="0px" viewBox="0 0 1000 1000" enable-background="new 0 0 1000 1000" xml:space="preserve">
<metadata> Svg Vector Icons : http://www.onlinewebfonts.com/icon </metadata>
<g><g transform="translate(0.000000,511.000000) scale(0.100000,-0.100000)"><path d="M4764.2,4982.2c-492.3-119.2-825-611.5-746.1-1107.7c17.3-113.5,17.3-144.2-3.8-155.8c-317.3-186.5-407.7-251.9-582.7-426.9c-451.9-446.1-751.9-1078.8-998-2105.7c-36.5-153.8-138.5-625-223.1-1048c-171.1-850-255.8-1198-369.2-1528.8c-196.1-571.1-438.4-903.8-784.6-1084.6c-192.3-100-261.5-155.8-317.3-250c-65.4-113.4-75-188.5-40.4-303.8c48.1-167.3,186.5-269.2,480.8-359.6c346.1-105.8,1180.7-203.8,2078.8-242.3c138.5-5.8,321.1-15.4,407.7-21.1l157.7-11.6l11.5-69.2c73.1-453.8,296.1-771.1,665.4-946.1c703.8-332.7,1544.2,117.3,1649.9,884.6c7.7,63.5,19.2,121.2,25,126.9c7.7,5.8,188.5,19.2,403.8,28.8c1392.2,59.6,2236.4,184.6,2532.6,371.2c142.3,90.4,230.8,267.3,203.8,401.9c-34.6,159.6-138.4,265.4-394.2,400c-151.9,80.8-357.7,271.2-463.4,428.8c-265.4,403.8-413.4,884.6-690.4,2261.5c-305.8,1521.1-500,2111.5-886.5,2692.2c-213.5,323.1-463.4,546.1-898,801.9c-21.2,11.5-21.2,42.3-3.9,155.8c40.4,250-28.8,523.1-182.7,732.7C5562.2,4926.4,5148.8,5076.4,4764.2,4982.2z M5218,4345.7c151.9-107.7,219.2-325,144.2-476.9l-26.9-57.7h-336.5h-336.5l-26.9,57.7c-42.3,84.6-36.5,236.5,13.5,330.8c46.2,86.5,142.3,171.1,228.8,198.1C4975.7,4430.3,5133.4,4405.3,5218,4345.7z M5754.5,3155.3c490.4-248.1,851.9-778.8,1098-1619.2c109.6-367.3,155.8-569.2,328.8-1426.9c251.9-1244.2,369.2-1673,578.8-2113.4c163.5-346.1,328.8-573.1,571.1-782.6c109.6-96.1,128.8-86.5-296.1-140.4c-767.3-98.1-1688.4-140.4-3036.4-142.3c-1346.1,0-2267.2,44.2-3036.4,142.3c-432.7,53.9-411.5,30.8-209.6,225c257.7,248.1,428.8,525,601.9,975c150,388.4,263.5,846.1,480.7,1932.6c71.2,353.8,163.5,782.7,205.8,951.9c273.1,1090.4,626.9,1686.5,1173,1982.6l121.1,65.4h659.6h659.6L5754.5,3155.3z M5550.7-3738.6c-21.2-163.4-153.8-332.7-319.2-407.7c-123.1-57.7-342.3-57.7-465.4,0c-165.4,75-298.1,244.2-319.2,407.7l-9.6,69.2h561.5h561.5L5550.7-3738.6z"/></g></g>
</svg>