<?xml version="1.0" encoding="utf-8"?>
<!-- Svg Vector Icons : http://www.onlinewebfonts.com/icon -->
<!DOCTYPE svg PUBLIC "-//W3C//DTD SVG 1.1//EN" "http://www.w3.org/Graphics/SVG/1.1/DTD/svg11.dtd">
<svg version="1.1" xmlns="http://www.w3.org/2000/svg" xmlns:xlink="http://www.w3.org/1999/xlink" x="0px" y="0px" viewBox="0 0 1000 1000" enable-background="new 0 0 1000 1000" xml:space="preserve">
<metadata> Svg Vector Icons : http://www.onlinewebfonts.com/icon </metadata>
<g><path d="M201.8,495.5c0,207,174.9,374.8,390.5,374.8c67,0,130.1-16.2,185.3-44.8c3.8-2,7.1-4,13.4-3.8c6.8,0.3,11.9,2.5,11.9,2.5l170.6,55c0,0,9.1,1.7,13.2-3.9c5-6.8,2.9-17.3,2.9-17.3l-56.2-145.1c0,0-5.8-11.6-5-19.9c0.8-8.2,3.3-12.1,6.4-17.4c30.6-53.4,48-114.8,48-180.1c0-207-174.8-374.8-390.5-374.8C376.6,120.6,201.8,288.5,201.8,495.5z M783,762.9c-4.6,0.5-8.9,2.8-10.6,4c-55.2,38.2-106.9,52.7-180.1,52.7c-185.8,0-336.5-145.1-336.5-324.2c0-179.1,150.7-324.2,336.5-324.2c185.8,0,336.5,145.1,336.5,324.2c0,66.4-16.4,117.6-53.4,170.2c-4.8,6.8-8.1,13.7-9.8,23.8c-1.7,10.1,6.7,20.3,6.7,20.3s56.6,97.3,54,104.5c-2,5.6-134.6-50.9-134.6-50.9S788.1,762.3,783,762.9z"/><path d="M219.5,286.5c-2.4-2.8-4.7-0.9-9.3,0.1c-3.8,0.8-7.5,1.6-11.3,2.5C66.1,322-15.3,451.8,17.1,579.2c10.2,40.2,30.5,75.3,57.7,103.5c2.7,2.8,4.9,4.8,6.7,9.7c1.8,4.9,0,13,0,13L70,804.6c0,0,0.4,6.8,4.5,10.2c3.4,2.8,8.7,0.4,8.7,0.4l96-61.1c0,0,2.8-2.1,6.9-3.4c3.9-1,6.2-0.3,8.9,0.3c12.2,2.9,24.7,4.9,37.5,6c4.4,0.4,7.5,1.8,8.8-0.7c1.3-2.5-0.5-3.9-3-6.7c-8.8-10-17.1-20.5-24.8-31.4c-2-2.8-1.8-3.2-6.8-6.9c-5-3.7-4.4-3.1-7.1-4c-5.2-1.6-0.7,0.4-5.9-1.6c-1.2-0.5-4.3-1.2-7.2-0.8c-3.2,0.4-5.3,1.6-5.3,1.6s-72,55.3-74.2,52.2c-2.7-4,14.3-76.2,14.3-76.2s3.6-7.5,1-13.5c-2.6-6-5.7-9.7-9.8-13.1c-31-26.7-43.8-46-54.2-86.9C32.4,467.3,85,372.2,183.3,335.9c3.1-1.1,5.2-0.9,8.1-3.3c2.9-2.4,3.3-3.9,4.4-5.8c6.4-11.2,13.4-22.1,20.9-32.7C219.1,290.8,221.8,289.3,219.5,286.5z"/></g>
</svg>