<?xml version="1.0" encoding="utf-8"?>
<!-- Svg Vector Icons : http://www.onlinewebfonts.com/icon -->
<!DOCTYPE svg PUBLIC "-//W3C//DTD SVG 1.1//EN" "http://www.w3.org/Graphics/SVG/1.1/DTD/svg11.dtd">
<svg version="1.1" xmlns="http://www.w3.org/2000/svg" xmlns:xlink="http://www.w3.org/1999/xlink" x="0px" y="0px" viewBox="0 0 1000 1000" enable-background="new 0 0 1000 1000" xml:space="preserve">
<metadata> Svg Vector Icons : http://www.onlinewebfonts.com/icon </metadata>
<g><g><g><path d="M527.4,100l9-15.3l64.3-64.3C444.3-12.3,275,32,153.5,153.5c-169.9,169.9-189,433.3-57.3,624.3l-68.7,68.7L248.1,878l-31.5-220.5l-56,56c-97.6-154.9-79-362,56-496.9C301.8,131.3,415.9,92.4,527.4,100z"/><path d="M941,122L720.5,90.5L752,311l61.2-61.2c126.1,157.4,116.1,387.8-29.8,533.7c-97.9,97.9-233.8,134.6-360.1,110.1l-73.1,73.1c169.2,54.1,362,14.1,496.2-120.2c180.7-180.7,190.8-467.5,30.1-660.1L941,122z"/></g></g><g></g><g></g><g></g><g></g><g></g><g></g><g></g><g></g><g></g><g></g><g></g><g></g><g></g><g></g><g></g></g>
</svg>