<?xml version="1.0" encoding="utf-8"?>
<!-- Svg Vector Icons : http://www.onlinewebfonts.com/icon -->
<!DOCTYPE svg PUBLIC "-//W3C//DTD SVG 1.1//EN" "http://www.w3.org/Graphics/SVG/1.1/DTD/svg11.dtd">
<svg version="1.1" xmlns="http://www.w3.org/2000/svg" xmlns:xlink="http://www.w3.org/1999/xlink" x="0px" y="0px" viewBox="0 0 1000 1000" enable-background="new 0 0 1000 1000" xml:space="preserve">
<metadata> Svg Vector Icons : http://www.onlinewebfonts.com/icon </metadata>
<g><g transform="translate(0.000000,511.000000) scale(0.100000,-0.100000)"><path d="M2922.8,3754.1c-323.7-78.5-603.3-329.4-725.9-649.3c-40.2-111.1-42.1-141.7-47.9-860c-5.8-806.4-3.8-833.2,93.8-883c84.3-44.1,162.8-36.4,231.8,26.8l63.2,55.5l9.6,735.5c9.6,714.4,11.5,735.5,53.6,829.3c84.3,183.9,252.8,316,453.9,354.3c82.4,15.3,928.9,19.2,3035.8,15.3l2920.9-5.7l120.7-55.5c139.8-65.1,237.5-164.7,308.4-316l49.8-107.3V1141.6c0-1651-1.9-1758.3-34.5-1854.1c-47.9-134.1-193.5-291.1-323.7-350.5l-101.5-46l-1959.4-9.6l-1961.3-9.6l-55.6-63.2c-90-99.6-61.3-260.5,53.6-308.4c40.2-15.3,563.1-21.1,2026.4-17.2l1972.8,5.7l111.1,42.1c298.8,113,521,339,630.1,639.7l44.1,122.6l5.7,1785.1c3.8,1555.2,1.9,1802.3-24.9,1913.4c-84.3,367.7-392.6,678-760.4,764.2C8937,3798.2,3095.2,3796.3,2922.8,3754.1z"/><path d="M3476.4,2536c-70.9-38.3-105.3-99.6-105.3-183.9c0-67,11.5-93.9,55.5-139.8l55.5-55.5h291.1h291.1l55.5,55.5c91.9,93.8,65.1,272-49.8,323.7C4006.9,2564.7,3530,2566.6,3476.4,2536z"/><path d="M4702.2,2536c-70.9-38.3-105.3-99.6-105.3-183.9c0-67,11.5-93.9,55.5-139.8l55.5-55.5h291.1h291.2l55.5,55.5c91.9,93.8,65.1,272-49.8,323.7C5232.8,2564.7,4755.8,2566.6,4702.2,2536z"/><path d="M5928,2536c-70.9-38.3-105.4-99.6-105.4-183.9c0-67,11.5-93.9,55.5-139.8l55.6-55.5h291.1H6516l55.5,55.5c91.9,93.8,65.1,272-49.8,323.7C6458.6,2564.7,5981.6,2566.6,5928,2536z"/><path d="M7153.8,2536c-70.9-38.3-105.3-99.6-105.3-183.9c0-67,11.5-93.9,55.5-139.8l55.5-55.5h291.1h291.1l55.5,55.5c92,93.8,65.1,272-49.8,323.7C7684.4,2564.7,7207.5,2566.6,7153.8,2536z"/><path d="M3838.4,1268c-72.8-72.8-84.3-147.5-38.3-239.4c51.7-95.8,63.2-97.7,1005.5-97.7c850.4,0,879.2,1.9,927,38.3c72.8,57.5,99.6,153.2,63.2,235.6c-53.6,130.2-44.1,128.3-1019,128.3h-873.4L3838.4,1268z"/><path d="M6853.1,1314c-229.8-57.5-450.1-245.2-555.4-469.3c-57.5-122.6-63.2-149.4-63.2-316c0-222.2,36.4-335.2,155.1-498c99.6-134.1,268.2-254.7,427.1-298.8c145.6-44.1,398.4-28.7,534.4,30.6l99.6,42.1l101.5-42.1c134.1-59.4,386.9-74.7,532.5-30.6c159,44,327.5,164.7,427.1,298.8c118.7,162.8,155.1,275.8,155.1,499.9c0,172.4-3.8,189.6-70.9,325.6c-88.1,180-233.7,321.8-411.8,406c-118.8,55.5-147.5,61.3-312.2,61.3c-143.7,0-208.8-9.6-306.5-44l-124.5-46l-105.4,42.1C7217,1323.6,6968,1342.7,6853.1,1314z M7098.3,919.5l40.2-11.5L7090.6,793c-61.3-157.1-65.1-377.3-5.7-542c21.1-61.3,40.2-120.7,40.2-128.3c0-21.1-111.1-19.2-199.2,5.8c-40.2,11.5-111.1,55.5-157,97.7c-170.5,157.1-178.1,394.6-21.1,565C6841.6,894.6,6991,948.2,7098.3,919.5z M7964,908c195.4-49.8,337.1-277.7,293-473.1c-44.1-197.3-231.7-340.9-421.4-323.7c-132.1,13.4-231.7,70.9-302.6,174.3c-111.1,164.7-101.5,352.4,26.8,494.2c76.6,84.3,120.7,113,206.9,134.1C7851,932.9,7866.3,932.9,7964,908z"/><path d="M2087.8,909.9c-507.6-59.4-934.7-266.2-1312-639.7C494.2-7.6,331.4-260.4,220.3-589.8C-139.8-1660.5,331.4-2819.3,1327.4-3323c1066.8-540.1,2355.9-155.2,2964.9,884.9c425.2,727.8,388.8,1652.9-91.9,2378.8c-118.8,178.1-415.6,475-593.8,593.8c-306.5,203-670.4,335.2-1030.4,377.3C2380.8,932.9,2292.7,932.9,2087.8,909.9z M2842.4,444.5c319.9-95.8,568.9-243.3,796.8-471.2c226-226,373.5-473.1,471.2-796.8c47.9-155.2,53.6-199.2,53.6-486.5c1.9-272-3.8-339-42.1-475c-185.8-683.8-710.6-1179.9-1411.6-1338.8c-183.9-40.2-549.7-40.2-747,3.8c-689.5,147.5-1248.8,697.2-1407.8,1379c-51.7,222.2-63.2,415.6-38.3,622.5c95.8,787.2,672.3,1425,1436.5,1591.7C2198.8,526.8,2610.6,513.4,2842.4,444.5z"/><path d="M2267.8-314c-23-7.6-59.4-40.2-82.4-68.9c-38.3-47.9-40.2-72.8-40.2-392.6v-342.9h-346.7h-346.7l-65.1-65.1c-46-46-65.1-82.4-65.1-124.5c0-74.7,44.1-162.8,90-185.8c19.2-9.6,189.6-21.1,379.2-26.8l344.8-9.6l9.6-344.8c5.7-189.6,17.2-360.1,26.8-379.2c23-46,111.1-90,185.8-90c42.1,0,78.5,19.2,124.5,65.1l65.1,65.1v346.7v346.7h342.8c314.1,0,344.8,3.8,390.7,38.3c72.8,57.5,99.6,153.2,63.2,235.6c-46,114.9-99.6,128.3-471.2,128.3h-325.6v325.6c0,369.7-15.3,425.2-124.5,471.2C2348.2-291,2325.3-291,2267.8-314z"/><path d="M5064.2,42.2c-72.8-72.8-84.3-147.5-38.3-239.4c44.1-82.4,103.4-97.7,392.6-97.7c237.5,0,270.1,3.8,314.1,38.3c72.8,57.5,99.6,153.2,63.2,235.6c-44.1,109.2-105.3,128.3-406.1,128.3h-260.5L5064.2,42.2z"/></g></g>
</svg>