<?xml version="1.0" encoding="utf-8"?>
<!-- Svg Vector Icons : http://www.onlinewebfonts.com/icon -->
<!DOCTYPE svg PUBLIC "-//W3C//DTD SVG 1.1//EN" "http://www.w3.org/Graphics/SVG/1.1/DTD/svg11.dtd">
<svg version="1.1" xmlns="http://www.w3.org/2000/svg" xmlns:xlink="http://www.w3.org/1999/xlink" x="0px" y="0px" viewBox="0 0 1000 1000" enable-background="new 0 0 1000 1000" xml:space="preserve">
<metadata> Svg Vector Icons : http://www.onlinewebfonts.com/icon </metadata>
<g><g transform="translate(0.000000,502.000000) scale(0.100000,-0.100000)"><path d="M8164,4903.9c-191.6-68.4-301.1-193.5-697.9-797.6c-338.2-514.1-533.7-768.3-789.8-1024.4c-496.6-496.5-1049.8-803.5-1777-989.2c-590.4-150.5-883.6-170.1-2525.8-174c-637.3-2-1200.3-11.7-1251.1-21.5C749,1826.9,403,1564.9,238.8,1228.7C117.6,986.3,100,869,100,323.6c0-545.4,17.6-662.7,136.8-903.2c93.8-189.6,271.7-385.1,479-520c191.6-127.1,275.6-262,441.8-721.4c144.7-402.7,303-1036.1,494.6-1988.1c121.2-594.3,164.2-717.4,306.9-860.2c175.9-175.9,348-215,928.6-217c406.6,0,555.2,19.5,692,88c236.5,119.2,355.8,406.6,310.8,752.6c-27.4,219-93.8,340.2-316.7,582.6c-119.3,129-209.2,322.6-285.4,615.8c-95.8,365.6-177.9,1030.2-177.9,1425.1v156.4l406.6-13.7c652.9-19.6,987.2-60.6,1401.7-166.2c709.6-183.8,1284.4-508.3,1775-1004.8c262-263.9,475-545.4,815.2-1077.2c305-475,473.1-666.6,633.4-719.4c222.9-76.3,369.5-17.6,471.1,183.8c150.5,295.2,242.4,1204.2,275.6,2738.8c13.7,625.6,13.7,639.3,54.7,649c23.5,5.9,68.4,11.7,101.6,11.7c156.4,0,408.6,129,566.9,285.4c197.5,199.4,283.5,406.6,287.4,692c2,287.4-89.9,512.2-289.3,713.5c-168.1,168.1-353.8,252.2-637.3,293.2l-70.4,9.8l-13.7,602.1C8858,3281.3,8772,4215.8,8644.9,4600.9C8556.9,4864.8,8375.1,4978.2,8164,4903.9z M8273.5,4444.5c60.6-156.4,136.8-768.3,174-1403.6C8510,1924.6,8523.7-953,8467-2100.5c-39.1-838.7-115.3-1552.2-183.8-1718.4l-23.4-56.7l-89.9,101.7c-50.8,56.7-209.2,283.5-351.9,506.3c-539.6,840.6-914.9,1255-1481.8,1630.4c-668.6,445.7-1432.9,678.4-2447.6,750.7L3697-874.8V323.6v1198.4l191.6,11.7c555.2,39.1,963.8,111.4,1391.9,248.3c682.3,218.9,1216,547.4,1714.5,1055.6c265.9,271.7,435.9,486.8,703.8,897.3c379.2,576.7,512.2,762.4,545.4,762.4C8248.1,4497.3,8261.8,4473.8,8273.5,4444.5z M3306.1,323.6V-878.7H2283.6c-1092.8,0-1139.7,3.9-1329.3,99.7c-119.2,62.5-310.8,263.9-371.4,392.9C512.5-237.5,491-73.3,491,323.6c0,394.9,21.5,563,89.9,705.7c64.5,134.9,209.2,293.2,342.1,373.4c199.4,119.2,217,121.2,1352.8,121.2l1030.2,2V323.6z M9121.9,878.8c144.7-54.7,285.4-195.5,340.2-340.2c84.1-224.8,33.2-465.3-134.9-635.3c-99.7-97.8-262-175.9-369.5-175.9H8903v596.2v596.3h54.7C8987,919.8,9061.3,902.2,9121.9,878.8z M2707.9-1390.9c5.9-68.4,15.6-232.6,21.5-367.5c31.3-656.8,174-1346.9,351.9-1700.8c35.2-72.3,127.1-197.4,205.3-283.5c76.2-84.1,152.5-179.9,170.1-213.1c45-88,56.7-299.1,19.5-387.1c-54.7-129-88-136.8-635.3-129c-441.8,5.9-488.7,9.8-547.4,45c-105.6,64.5-148.6,185.7-267.8,782c-224.8,1116.3-455.5,1970.5-623.6,2293.1c-17.6,33.2-31.3,64.5-31.3,72.3c0,5.9,299.1,9.8,662.7,9.8h662.7L2707.9-1390.9z"/></g></g>
</svg>