<?xml version="1.0" encoding="utf-8"?>
<!-- Svg Vector Icons : http://www.onlinewebfonts.com/icon -->
<!DOCTYPE svg PUBLIC "-//W3C//DTD SVG 1.1//EN" "http://www.w3.org/Graphics/SVG/1.1/DTD/svg11.dtd">
<svg version="1.1" xmlns="http://www.w3.org/2000/svg" xmlns:xlink="http://www.w3.org/1999/xlink" x="0px" y="0px" viewBox="0 0 1000 1000" enable-background="new 0 0 1000 1000" xml:space="preserve">
<metadata> Svg Vector Icons : http://www.onlinewebfonts.com/icon </metadata>
<g><g transform="translate(0.000000,511.000000) scale(0.100000,-0.100000)"><path d="M1529.2,110v-4900H5000h3470.8v4119.1v4119l-765.6,750.3c-421.1,410.9-796.3,760.5-834.6,778.4c-53.6,23-709.5,30.6-2705.2,33.2H1529.2V110z M6633.3,3887.1v-714.6h714.6h714.6V-604.6v-3777.1H5000H1937.5V110v4491.7h2347.9h2347.9V3887.1z M7730.7,3588.5c0-5.1-155.7-7.7-344.5-7.7h-344.5v349.6v352.2l344.5-344.5C7575.1,3749.3,7730.7,3591,7730.7,3588.5z"/><path d="M2550,2151.7v-204.2h2450h2450v204.2v204.2H5000H2550V2151.7z"/><path d="M2550,390.7V186.6h2450h2450v204.2v204.2H5000H2550V390.7z"/><path d="M2550-1395.7v-204.2h2450h2450v204.2v204.2H5000H2550V-1395.7z"/><path d="M2550-3156.7v-204.2h2450h2450v204.2v204.2H5000H2550V-3156.7z"/></g></g>
</svg>