<?xml version="1.0" encoding="utf-8"?>
<!-- Generator: Adobe Illustrator 24.0.0, SVG Export Plug-In . SVG Version: 6.00 Build 0)  -->
<svg version="1.1" id="Layer_1" xmlns="http://www.w3.org/2000/svg" xmlns:xlink="http://www.w3.org/1999/xlink" x="0px" y="0px"
	 viewBox="0 0 110 110" style="enable-background:new 0 0 110 110;" xml:space="preserve">
<style type="text/css">
	.st0{fill:#FFFFFF;}
	.st1{clip-path:url(#SVGID_2_);}
	.st2{fill-rule:evenodd;clip-rule:evenodd;fill:#FCCEB0;}
	.st3{fill-rule:evenodd;clip-rule:evenodd;fill:#EBB39B;}
	.st4{fill-rule:evenodd;clip-rule:evenodd;fill:#B2D9A8;}
	.st5{fill-rule:evenodd;clip-rule:evenodd;fill:#F2F1E2;}
	.st6{fill-rule:evenodd;clip-rule:evenodd;fill:#3A0E00;}
	.st7{fill-rule:evenodd;clip-rule:evenodd;fill:#836C66;}
	.st8{fill-rule:evenodd;clip-rule:evenodd;fill:#683227;}
	.st9{fill:#D0957D;}
	.st10{fill-rule:evenodd;clip-rule:evenodd;fill:#D0957D;}
</style>
<g>
	<path class="st0" d="M109.91,58.21C108.24,87.09,84.3,110,55,110C24.63,110,0,85.38,0,55C0,24.62,24.63,0,55,0
		c30.38,0,55,24.62,55,55C110,56.08,109.97,57.15,109.91,58.21"/>
	<g>
		<defs>
			<path id="SVGID_1_" d="M109.91,58.21C108.24,87.09,84.3,110,55,110C24.63,110,0,85.38,0,55C0,24.62,24.63,0,55,0
				c30.38,0,55,24.62,55,55C110,56.08,109.97,57.15,109.91,58.21"/>
		</defs>
		<clipPath id="SVGID_2_">
			<use xlink:href="#SVGID_1_"  style="overflow:visible;"/>
		</clipPath>
		<g class="st1">
			<path class="st2" d="M36.72,48.78c-1.87-0.88-3.37,0.11-3.7,2.47c-0.34,2.41,0.21,5.8,1.23,7.58c1.25,2.18,2.9,3.12,4.18,3.09
				c-0.15-0.8-0.28-1.6-0.41-2.42c-0.17-1.07-0.33-2.16-0.47-3.25c-0.15-1.09-0.28-2.18-0.41-3.26c-0.1-0.85-0.2-1.69-0.27-2.53
				C36.8,49.9,36.76,49.34,36.72,48.78z"/>
			<path class="st3" d="M73.28,48.78c1.87-0.88,3.37,0.11,3.7,2.47c0.34,2.41-0.21,5.8-1.23,7.58c-1.25,2.18-2.9,3.12-4.18,3.09
				c0.15-0.8,0.28-1.6,0.41-2.42c0.17-1.07,0.33-2.16,0.47-3.25c0.15-1.09,0.28-2.18,0.41-3.26c0.1-0.85,0.2-1.69,0.27-2.53
				C73.2,49.9,73.24,49.34,73.28,48.78z"/>
			<path class="st4" d="M37.32,87.13h35.36c10.63,0,19.33,8.7,19.33,19.33V110H17.99v-3.53C17.99,95.83,26.69,87.13,37.32,87.13z"/>
			<path class="st2" d="M43.72,70.23c0,0,0,8.64,0,12.01c0,3.37-2.83,4.9-2.83,4.9c0,8.87,28.21,8.87,28.21,0
				c0,0-2.83-1.53-2.83-4.9c0-3.37,0-12.01,0-12.01H43.72z"/>
			<path class="st3" d="M43.72,70.23c0,0,0,8.64,0,12.01c0,1.15-0.33,2.08-0.76,2.81c2.33,2.39,5.16,4.07,7.39,5.53
				c1.7,1.1,7.59,1.1,9.29,0c2.56-1.67,5.27-3.18,7.46-5.41c-0.47-0.75-0.83-1.72-0.83-2.93c0-3.37,0-12.01,0-12.01h-0.32
				c-0.25,0.25-0.48,0.44-0.71,0.57c-1.45,0.8-2.23,0.23-2.97-0.57H47.73c-0.74,0.8-1.52,1.37-2.97,0.57
				c-0.23-0.13-0.46-0.32-0.7-0.57H43.72L43.72,70.23z M55,72.31c0.02-0.01,0.05-0.03,0.06-0.03c0.98-0.57,2.39-0.25,3.33,0.26
				c0.79,0.43,1.64-0.03,2.47,0.34c0.79,0.35,1.33,3.53,0.75,4.46c-1,1.59-2.25-0.98-4.65-0.61c-0.61,0.09-1.33,0.04-1.96-0.06
				c-0.63,0.09-1.34,0.15-1.95,0.06c-2.63-0.41-3.82,2.21-4.83,0.61c-0.67-1.07-0.04-4.03,0.92-4.46c0.83-0.37,1.68,0.09,2.47-0.34
				c0.94-0.51,2.34-0.82,3.33-0.26C54.95,72.28,54.97,72.3,55,72.31z"/>
			<path class="st2" d="M55,80.83c-1.9,0-3.8-0.28-4.65-0.83c-0.72-0.47-5.5-4.09-8.55-7.32c-1.19-1.26-2.14-3.53-2.57-5.27
				c-0.76-3.11-1.26-6.31-1.69-9.48c-0.15-1.09-0.28-2.18-0.41-3.26c-0.1-0.85-0.2-1.7-0.27-2.53c-0.08-0.84-0.14-1.67-0.18-2.5
				c-0.04-0.82-0.06-1.64-0.06-2.45c0-0.81,0.03-1.6,0.08-2.39c0.06-1.21,0.23-2.4,0.51-3.53c0.28-1.14,0.67-2.24,1.16-3.29
				c3.34-7.2,10-10.66,16.63-10.64c6.63-0.01,13.3,3.44,16.64,10.64c0.49,1.05,0.87,2.15,1.16,3.29c0.28,1.14,0.46,2.32,0.51,3.53
				c0.05,0.78,0.08,1.58,0.09,2.39c0,0.81-0.02,1.62-0.06,2.45c-0.04,0.82-0.1,1.66-0.18,2.5c-0.08,0.84-0.17,1.68-0.28,2.53
				c-0.13,1.08-0.27,2.17-0.41,3.26c-0.43,3.18-0.94,6.37-1.69,9.48c-0.42,1.74-1.38,4.01-2.57,5.27c-3.05,3.23-7.84,6.85-8.56,7.32
				C58.8,80.55,56.9,80.83,55,80.83z"/>
			<path class="st5" d="M42.94,52.14c2.95-2.51,5.45-2.07,8.3,0.32c-1.87,0.05-2.92,2.05-5.84,1.23
				C43.97,53.29,42.94,52.14,42.94,52.14z"/>
			<path class="st6" d="M47.09,51.42c0.49,0,0.88,0.4,0.88,0.89c0,0.49-0.39,0.88-0.88,0.88c-0.49,0-0.89-0.4-0.89-0.88
				C46.21,51.82,46.6,51.42,47.09,51.42z"/>
			<path class="st7" d="M47.09,50.32c1.02,0,1.85,0.83,1.85,1.85c0,1.02-0.83,1.85-1.85,1.85c-1.02,0-1.85-0.83-1.85-1.85
				C45.24,51.15,46.07,50.32,47.09,50.32z"/>
			<path class="st8" d="M47.09,51.28c0.49,0,0.88,0.4,0.88,0.89c0,0.49-0.39,0.88-0.88,0.88c-0.49,0-0.89-0.4-0.89-0.88
				C46.21,51.68,46.6,51.28,47.09,51.28z"/>
			<path class="st8" d="M41.81,50.31c-0.53,0.77-1.48,0.1-0.95-0.67c2.28-3.3,6.72-4.36,10.24-2.37c1.44,0.81,0.17,2.22-0.65,1.76
				C47.72,47.49,43.77,47.47,41.81,50.31z"/>
			<path class="st5" d="M67.06,52.14c-2.95-2.51-5.45-2.07-8.3,0.32c1.87,0.05,2.92,2.05,5.84,1.23
				C66.03,53.29,67.06,52.14,67.06,52.14z"/>
			<path class="st6" d="M62.91,51.42c-0.49,0-0.88,0.4-0.88,0.89c0,0.49,0.39,0.88,0.88,0.88c0.49,0,0.88-0.4,0.88-0.88
				C63.79,51.82,63.4,51.42,62.91,51.42z"/>
			<path class="st7" d="M62.91,50.32c-1.02,0-1.85,0.83-1.85,1.85c0,1.02,0.83,1.85,1.85,1.85c1.02,0,1.85-0.83,1.85-1.85
				C64.76,51.15,63.93,50.32,62.91,50.32z"/>
			<path class="st8" d="M62.91,51.28c-0.49,0-0.88,0.4-0.88,0.89c0,0.49,0.39,0.88,0.88,0.88c0.49,0,0.88-0.4,0.88-0.88
				C63.79,51.68,63.4,51.28,62.91,51.28z"/>
			<path class="st8" d="M68.18,50.31c0.53,0.77,1.49,0.1,0.95-0.67c-2.28-3.3-6.71-4.36-10.24-2.37c-1.44,0.81-0.16,2.22,0.65,1.76
				C62.28,47.49,66.23,47.47,68.18,50.31z"/>
			<path class="st9" d="M55,63.22c-0.68,0-1.33-0.22-1.87-0.62c-0.76,0.47-1.84,0.36-2.49-0.29c-0.19-0.19-0.19-0.51,0-0.7
				c0.19-0.19,0.51-0.19,0.7,0c0.39,0.38,1.06,0.38,1.45,0c0.09-0.1,0.22-0.14,0.34-0.15l0,0h0c0.1-0.02,0.25,0.04,0.34,0.13l0,0v0
				l0,0c0,0,0,0,0,0l0,0l0,0l0,0l0,0l0,0l0,0l0,0l0,0h0l0,0v0l0,0l0,0l0,0l0,0v0c0,0,0,0,0,0l0,0l0,0c0.8,0.8,2.2,0.8,3,0
				c0.2-0.19,0.51-0.19,0.7,0c0.39,0.38,1.06,0.38,1.45,0c0.19-0.19,0.51-0.19,0.7,0c0.19,0.19,0.19,0.51,0,0.7
				c-0.65,0.65-1.73,0.76-2.49,0.29C56.33,63,55.68,63.22,55,63.22z"/>
			<path class="st3" d="M58.71,80.4c0.38-0.11,0.7-0.24,0.93-0.4c0.72-0.47,5.51-4.09,8.56-7.32c1.19-1.26,2.14-3.53,2.57-5.27
				c0.76-3.11,1.26-6.31,1.69-9.48c0.15-1.09,0.28-2.18,0.41-3.26c0.1-0.85,0.2-1.7,0.28-2.53c0.08-0.84,0.14-1.67,0.18-2.5
				c0.04-0.82,0.06-1.64,0.06-2.45c0-0.81-0.03-1.6-0.09-2.39c-0.06-1.21-0.23-2.4-0.51-3.53c-0.28-1.14-0.67-2.24-1.16-3.29
				c-2.46-5.3-6.72-8.57-11.44-9.93c3.11,1.62,8.27,2.24,8.5,8.99c0.04,1.13-0.66,5.47-0.28,6.59c2.03,5.93,3,8.13,0.78,12.13
				c-1.58,2.85-0.99,9.04-1.57,12.22C66.65,73.27,62.53,76.78,58.71,80.4z"/>
			<path class="st9" d="M63.26,54.24L63.26,54.24c-1.14,0-1.98-0.43-2.71-0.81c-0.62-0.32-1.16-0.6-1.8-0.61
				c-0.15-0.01-0.28-0.1-0.33-0.24c-0.05-0.14-0.01-0.29,0.11-0.39c1.71-1.43,3.19-2.09,4.66-2.09c1.36,0,2.7,0.58,4.1,1.77
				c0.07,0.06,0.12,0.15,0.12,0.25c0.01,0.1-0.03,0.19-0.09,0.26c-0.05,0.05-1.12,1.23-2.62,1.66
				C64.19,54.17,63.72,54.24,63.26,54.24z M59.6,52.24c0.45,0.14,0.87,0.35,1.27,0.56c0.7,0.36,1.42,0.74,2.39,0.74h0
				c0.4,0,0.81-0.06,1.25-0.19c0.9-0.25,1.65-0.84,2.02-1.19C64.18,50.31,62.18,50.31,59.6,52.24z M46.74,54.24
				c-0.46,0-0.94-0.07-1.44-0.21c-1.51-0.43-2.58-1.61-2.62-1.66c-0.07-0.07-0.1-0.16-0.09-0.26c0.01-0.09,0.05-0.19,0.12-0.25
				c1.4-1.19,2.75-1.77,4.11-1.77c1.47,0,2.95,0.66,4.66,2.09c0.11,0.09,0.15,0.25,0.1,0.39c-0.05,0.14-0.18,0.23-0.32,0.24
				c-0.64,0.01-1.18,0.29-1.8,0.61C48.71,53.81,47.88,54.24,46.74,54.24z M43.47,52.16c0.38,0.34,1.12,0.93,2.02,1.19
				c0.44,0.12,0.85,0.19,1.25,0.19c0.96,0,1.69-0.38,2.39-0.74c0.4-0.21,0.82-0.42,1.27-0.56C47.82,50.31,45.82,50.31,43.47,52.16z"
				/>
			<path class="st10" d="M49.42,68.92c0,0,1.63-0.68,2.32-0.9c0.7-0.21,1.35-0.16,2.18,0.02c0.66,0.15,1.5,0.15,2.16,0
				c0.83-0.19,1.48-0.23,2.18-0.02c0.69,0.22,2.32,0.9,2.32,0.9C59.65,70.54,57.57,72,55,71.5C52.43,72,50.35,70.54,49.42,68.92z"/>
			<path class="st8" d="M36.98,51.72c0,0,4.77,13.66,7.78,15.31c3.01,1.65,3.13-2.55,5.98-2.55h8.52c2.86,0,2.98,4.21,5.98,2.55
				c3.01-1.66,7.78-15.31,7.78-15.31l0.15,0.15l-0.02,0.26c-0.76,8.22-0.38,15.01-2.09,22.1c-1.72,7.09-6.79,9.57-11.41,12.58
				c-1.7,1.1-7.6,1.1-9.29,0c-3.96-2.58-9.77-5.86-11.4-12.58c-1.63-6.72-1.34-13.87-2.1-22.1l-0.02-0.26L36.98,51.72L36.98,51.72z
				 M55,68.55c-0.03-0.01-0.05-0.03-0.06-0.04c-0.98-0.57-2.39-0.25-3.33,0.26c-0.8,0.43-1.65-0.03-2.47,0.34
				c-0.96,0.43-1.59,3.38-0.92,4.45c1.01,1.61,2.2-1.01,4.83-0.61c0.61,0.09,1.33,0.04,1.95-0.05c0.62,0.09,1.35,0.15,1.96,0.05
				c2.41-0.37,3.65,2.2,4.65,0.61c0.58-0.92,0.04-4.1-0.75-4.45c-0.83-0.37-1.68,0.09-2.47-0.34c-0.94-0.51-2.34-0.82-3.33-0.26
				C55.05,68.53,55.02,68.54,55,68.55z"/>
		</g>
	</g>
</g>
</svg>
