<?xml version="1.0" encoding="utf-8"?>
<!-- Generator: Adobe Illustrator 24.0.0, SVG Export Plug-In . SVG Version: 6.00 Build 0)  -->
<svg version="1.1" id="Layer_1" xmlns="http://www.w3.org/2000/svg" xmlns:xlink="http://www.w3.org/1999/xlink" x="0px" y="0px"
	 viewBox="0 0 110 110" style="enable-background:new 0 0 110 110;" xml:space="preserve">
<style type="text/css">
	.st0{fill:#FFFFFF;}
	.st1{clip-path:url(#SVGID_2_);}
	.st2{fill-rule:evenodd;clip-rule:evenodd;fill:#F16A74;}
	.st3{fill-rule:evenodd;clip-rule:evenodd;fill:#3A3A3F;}
	.st4{fill-rule:evenodd;clip-rule:evenodd;fill:#CC997F;}
	.st5{fill-rule:evenodd;clip-rule:evenodd;fill:#A9795D;}
	.st6{fill-rule:evenodd;clip-rule:evenodd;fill:#8B2524;}
	.st7{fill:#916345;}
	.st8{fill-rule:evenodd;clip-rule:evenodd;fill:#80351A;}
	.st9{fill-rule:evenodd;clip-rule:evenodd;fill:#484F5A;}
	.st10{fill-rule:evenodd;clip-rule:evenodd;fill:#F2F1E2;}
	.st11{fill-rule:evenodd;clip-rule:evenodd;fill:#3A0E00;}
	.st12{fill-rule:evenodd;clip-rule:evenodd;fill:#897274;}
	.st13{fill-rule:evenodd;clip-rule:evenodd;fill:#533932;}
	.st14{fill-rule:evenodd;clip-rule:evenodd;fill:#7B442F;}
</style>
<g>
	<path class="st0" d="M109.91,58.21C108.24,87.09,84.3,110,55,110C24.62,110,0,85.38,0,55C0,24.62,24.62,0,55,0s55,24.62,55,55
		C110,56.08,109.97,57.15,109.91,58.21"/>
	<g>
		<defs>
			<path id="SVGID_1_" d="M109.91,58.21C108.24,87.09,84.3,110,55,110C24.62,110,0,85.38,0,55C0,24.62,24.62,0,55,0s55,24.62,55,55
				C110,56.08,109.97,57.15,109.91,58.21"/>
		</defs>
		<clipPath id="SVGID_2_">
			<use xlink:href="#SVGID_1_"  style="overflow:visible;"/>
		</clipPath>
		<g class="st1">
			<path class="st2" d="M42.72,86.82h24.56c10.78,0,19.59,8.82,19.59,19.59V110H23.13v-3.58C23.13,95.64,31.94,86.82,42.72,86.82z"
				/>
			<polygon class="st3" points="46.08,87.49 63.92,87.49 75.92,74.32 77.53,62.47 55,41.06 34.12,60.42 32.81,74.32 			"/>
			<path class="st4" d="M45.59,69.69c0,0,0,8.75,0,12.17c0,3.42-2.87,4.97-2.87,4.97c0,3.78,5.5,6.85,12.28,6.85
				c6.79,0,12.28-3.07,12.28-6.85c0,0-2.87-1.55-2.87-4.97c0-3.42,0-12.17,0-12.17L55,70.54L45.59,69.69z"/>
			<path class="st5" d="M55,87.3L55,87.3L55,87.3c2.27,0,6.15-2.84,9.42-5.63V69.69L55,70.54l0,0l0,0l-9.41-0.86v8.41v3.59v0.18
				c0,3.42-2.87,4.97-2.87,4.97s3.79,1.21,6.58-1.9c0.06-0.06,0.11-0.13,0.17-0.19C51.58,86.22,53.6,87.3,55,87.3L55,87.3L55,87.3z"
				/>
			<path class="st4" d="M55,23.92c1.24,0,2.46,0.12,3.63,0.36c1.18,0.24,2.31,0.58,3.39,1.03c4.33,1.78,7.87,5.17,9.84,9.42
				c0.49,1.06,0.89,2.18,1.17,3.33c0.28,1.16,0.46,2.35,0.51,3.58c0.06,0.8,0.08,1.6,0.09,2.42c0,0.82-0.02,1.64-0.06,2.48
				c-0.24,4.78-1.01,10.23-1.92,14.92c-0.2,1.06-0.42,2.09-0.67,3.1c-0.31,1.28-1.16,2.91-2.34,4.64
				C66.33,72.61,61.7,80.43,55,80.43c-6.7,0-11.33-7.82-13.64-11.23c-1.18-1.73-2.03-3.36-2.34-4.64c-0.25-1.01-0.47-2.04-0.67-3.1
				c-0.91-4.69-1.68-10.14-1.92-14.92c-0.04-0.84-0.07-1.66-0.06-2.48c0-0.82,0.03-1.63,0.09-2.42c0.06-1.23,0.23-2.43,0.52-3.58
				c0.29-1.16,0.68-2.27,1.17-3.33c1.97-4.25,5.5-7.64,9.83-9.42c1.09-0.45,2.22-0.8,3.4-1.03C52.55,24.04,53.76,23.92,55,23.92z"/>
			<path class="st5" d="M55,23.92c1.24,0,2.46,0.12,3.63,0.36c1.18,0.24,2.31,0.58,3.39,1.03c1.09,0.45,2.12,0.99,3.09,1.63
				c0.97,0.64,1.88,1.36,2.72,2.16c0.83,0.8,1.59,1.68,2.27,2.62c0.67,0.94,1.27,1.95,1.76,3.01c0.49,1.06,0.89,2.18,1.17,3.33
				c0.28,1.16,0.46,2.35,0.51,3.58c0.06,0.8,0.08,1.6,0.09,2.42c0,0.82-0.02,1.64-0.06,2.48c-0.04,0.83-0.11,1.68-0.18,2.53
				c-0.08,0.85-0.17,1.71-0.28,2.57l-0.14,1.11c0.12-5.18,0.19-8.53,0.17-8.8c-0.02-0.48-0.07-0.95-0.13-1.42
				c-5.84,1.03-11.86,1.57-18.01,1.57c-6.15,0-12.17-0.54-18.01-1.57c-0.06,0.47-0.11,0.94-0.13,1.42c-0.02,0.27,0.04,3.61,0.16,8.8
				l-0.13-1.11c-0.11-0.86-0.2-1.72-0.28-2.57c-0.08-0.85-0.14-1.69-0.18-2.53c-0.04-0.84-0.07-1.66-0.06-2.48
				c0-0.82,0.03-1.63,0.09-2.42c0.06-1.23,0.23-2.43,0.52-3.58c0.29-1.16,0.68-2.27,1.17-3.33c0.49-1.06,1.08-2.07,1.76-3.01
				c0.67-0.94,1.43-1.82,2.27-2.62c0.83-0.8,1.75-1.52,2.72-2.16c0.97-0.64,2.01-1.18,3.09-1.63c1.09-0.45,2.22-0.8,3.4-1.03
				C52.55,24.04,53.76,23.92,55,23.92z"/>
			<path class="st5" d="M61.74,25.19l0.28,0.11c4.33,1.78,7.87,5.17,9.84,9.42c0.49,1.06,0.89,2.18,1.17,3.33
				c0.28,1.16,0.46,2.35,0.51,3.58c0.06,0.8,0.08,1.6,0.09,2.42c0,0.82-0.02,1.64-0.06,2.48c-0.24,4.78-1.01,10.23-1.92,14.92
				c-0.2,1.06-0.42,2.09-0.67,3.1c-0.31,1.28-1.16,2.91-2.34,4.64c-1.72,2.53-4.72,7.5-8.89,9.89c2.5-2.7,4.32-6.89,5.44-9.18
				c0.88-1.8,1.51-3.5,1.75-4.84c0.18-1.05,0.35-2.13,0.5-3.23c0.68-4.89,1.25-10.56,1.44-15.54c0.03-0.87,0.05-1.73,0.05-2.58
				c0-0.85-0.02-1.69-0.07-2.52c-0.04-1.28-0.17-2.53-0.39-3.73c-0.21-1.2-0.51-2.37-0.87-3.47C66.35,30.28,64.29,27.19,61.74,25.19
				z"/>
			<path class="st6" d="M48.42,68.46c0,0,3.14-2.62,4.06-3.1c0.92-0.48,2.52,0.6,2.52,0.6s1.6-1.07,2.53-0.6
				c0.92,0.48,4.06,3.1,4.06,3.1s-0.31,0.95-2.16,2.59C57.58,72.69,55,72.52,55,72.52s-2.58,0.17-4.43-1.47
				C48.73,69.42,48.42,68.46,48.42,68.46z"/>
			<path class="st7" d="M55,61.5c-0.79,0-1.54-0.26-2.16-0.74c-0.86,0.56-2.09,0.44-2.83-0.3c-0.2-0.2-0.2-0.51,0-0.71
				c0.19-0.2,0.51-0.2,0.71,0c0.48,0.48,1.3,0.48,1.78,0c0.1-0.1,0.23-0.15,0.35-0.15c0.13,0,0.23,0.04,0.32,0.11l0,0c0,0,0,0,0,0v0
				c0,0,0,0,0,0l0,0l0,0l0,0v0l0,0l0,0l0,0v0c0,0,0,0,0,0v0l0,0c0,0,0.01,0,0,0l0,0v0l0,0c0,0,0,0,0,0l0,0v0l0,0l0,0l0,0l0,0v0h0
				l0,0v0l0,0l0,0l0,0v0l0,0c0,0,0,0,0,0l0,0v0h0l0,0v0l0,0v0l0,0l0,0l0,0l0,0l0,0l0,0v0c0,0,0,0,0,0h0l0,0v0l0,0l0,0l0,0v0l0,0l0,0
				v0l0,0h0c0.96,0.96,2.62,0.96,3.58,0l0,0l0,0v0l0,0h0v0v0c0,0,0,0,0,0l0,0v0l0,0l0,0c0,0,0,0,0,0c0,0,0,0,0,0v0l0,0
				c0,0-0.01,0,0,0l0,0v0l0,0l0,0v0l0,0c0.07-0.06,0.15-0.1,0.24-0.12l0,0h0l0,0l0,0l0,0l0,0l0,0h0l0,0l0,0l0,0h0l0,0l0,0v0h0l0,0
				l0,0h0l0,0l0,0h0l0,0l0,0l0,0l0,0l0,0l0,0l0,0h0l0,0l0,0l0,0h0l0,0h0l0,0v0l0,0h0l0,0l0,0l0,0h0l0,0l0,0l0,0l0,0l0,0l0,0
				c0.02,0,0.05,0,0.07,0c0.13,0,0.26,0.05,0.35,0.15c0.48,0.47,1.31,0.48,1.78,0c0.2-0.2,0.52-0.2,0.71,0c0.2,0.2,0.2,0.51,0,0.71
				c-0.74,0.74-1.98,0.86-2.84,0.3C56.54,61.24,55.79,61.5,55,61.5z"/>
			<path class="st8" d="M70.26,42.68c0.83,0.66,0.98,0.23,0.15-0.44c-0.01-0.01-2.72-3.14-10.99,2.62c-0.37,0.25-0.46,0.76-0.2,1.13
				c0.26,0.37,0.76,0.46,1.13,0.2C67.62,41.13,70.25,42.68,70.26,42.68z"/>
			<path class="st8" d="M39.74,42.68c-0.83,0.66-0.98,0.23-0.15-0.44c0.01-0.01,2.72-3.14,10.99,2.62c0.36,0.25,0.46,0.76,0.2,1.13
				c-0.25,0.37-0.76,0.46-1.12,0.2C42.38,41.13,39.75,42.68,39.74,42.68z"/>
			<path class="st9" d="M73.69,27.17c1.95,3.05,3.15,6.62,3.32,10.45c0.73,10.36,1.21,20.3,3.28,31.16
				c4.29,22.49-15.88,18.64-15.88,18.08c5.28-4.14,7.61-20.99,7.81-29.38c0.23-9.43,0.37-16.18,0.34-16.57
				c-0.02-0.48-0.06-0.95-0.12-1.42c-5.66,1.03-11.49,1.57-17.44,1.57c-5.95,0-11.78-0.54-17.44-1.57
				c-0.06,0.47-0.11,0.94-0.13,1.42c-0.03,0.38,0.11,7.14,0.34,16.57c0.2,8.39,2.53,25.24,7.81,29.38c0,0.57-20.16,4.41-15.88-18.07
				c2.07-10.85,2.55-20.8,3.28-31.16c0.17-3.83,1.37-7.4,3.32-10.45c3.36-5.24,8.63-8.4,14.28-9.47c0.99-0.19,2.03,0.56,3.03,0.5
				c1.02-0.06,2.01-0.92,3.04-0.85C63.32,17.81,69.79,21.08,73.69,27.17z"/>
			<path class="st3" d="M66.52,40.2c0.01,0.06,0,0.13-0.02,0.18c-0.31,0.04-0.62,0.07-0.93,0.11c-0.03-0.06-0.05-0.12-0.06-0.19
				c-0.02-0.2-0.05-0.46-0.09-0.8c-0.04-0.3-0.08-0.65-0.14-1.02c-0.13-0.89-0.32-1.93-0.59-3.03c-0.21-0.88-0.48-1.82-0.81-2.76
				c-0.26-0.75-0.56-1.49-0.91-2.21c-0.31-0.65-0.66-1.28-1.05-1.88c-0.15-0.23-0.09-0.54,0.15-0.69c0.23-0.15,0.54-0.09,0.69,0.14
				c0.42,0.63,0.79,1.3,1.12,1.99c0.36,0.76,0.68,1.54,0.95,2.32c0.34,0.96,0.61,1.93,0.83,2.85c0.28,1.16,0.47,2.23,0.61,3.12
				c0.06,0.38,0.11,0.73,0.14,1.05C66.46,39.65,66.49,39.93,66.52,40.2L66.52,40.2z M70.1,39.88c-0.25,0.04-0.49,0.08-0.74,0.11
				c-0.09-0.08-0.16-0.19-0.18-0.31c-0.03-0.17-0.06-0.37-0.1-0.59c-0.04-0.19-0.07-0.39-0.12-0.61l-0.01-0.04
				c-0.16-0.77-0.38-1.68-0.68-2.65c-0.3-0.98-0.69-2.03-1.18-3.08c-0.12-0.25-0.01-0.55,0.24-0.67c0.25-0.12,0.55-0.01,0.67,0.24
				c0.51,1.1,0.92,2.19,1.23,3.21c0.31,1,0.53,1.93,0.7,2.74l0.01,0.05c0.04,0.21,0.08,0.42,0.12,0.63c0.04,0.21,0.08,0.42,0.1,0.61
				C70.2,39.66,70.17,39.78,70.1,39.88L70.1,39.88z M62.8,40.75c0-0.02,0-0.05,0-0.07c-0.01-0.27-0.04-0.67-0.07-1.14
				c-0.02-0.33-0.06-0.72-0.11-1.2c-0.08-0.82-0.2-1.77-0.35-2.76c-0.15-1.01-0.35-2.09-0.6-3.18c-0.16-0.71-0.35-1.41-0.57-2.11
				c-0.19-0.63-0.41-1.25-0.65-1.84c-0.11-0.26-0.4-0.38-0.66-0.27c-0.26,0.1-0.38,0.4-0.27,0.65c0.23,0.56,0.44,1.15,0.62,1.76
				c0.2,0.67,0.39,1.35,0.54,2.04c0.24,1.05,0.43,2.11,0.58,3.1c0.15,1.01,0.26,1.93,0.34,2.71c0.04,0.4,0.07,0.81,0.1,1.18
				c0.04,0.5,0.06,0.87,0.07,1.11c0,0.03,0.01,0.06,0.01,0.09C62.13,40.8,62.47,40.78,62.8,40.75L62.8,40.75z M59.04,40.98
				c-0.33,0.01-0.67,0.03-1,0.04l0-0.03c0-0.13-0.01-0.44-0.02-0.89c-0.01-0.43-0.03-1-0.07-1.68c-0.04-0.78-0.09-1.71-0.17-2.73
				c-0.07-1-0.17-2.06-0.29-3.12c-0.07-0.64-0.15-1.29-0.25-1.93c-0.09-0.58-0.18-1.15-0.28-1.69c-0.05-0.27,0.13-0.54,0.4-0.59
				c0.27-0.05,0.54,0.13,0.59,0.4c0.11,0.56,0.21,1.14,0.29,1.74c0.09,0.64,0.18,1.3,0.25,1.97c0.12,1.08,0.22,2.16,0.29,3.16
				c0.07,0.99,0.13,1.93,0.17,2.75c0.03,0.66,0.06,1.24,0.07,1.7c0.01,0.44,0.02,0.76,0.02,0.9V40.98L59.04,40.98z M55.27,41.06H55
				c-0.25,0-0.49,0-0.74,0c0-2.57,0.04-5.34,0.09-8.1c0.02-1.35,0.05-2.71,0.06-4.04c0-0.28,0.23-0.5,0.51-0.5
				c0.28,0,0.5,0.23,0.5,0.51c-0.02,1.35-0.04,2.7-0.06,4.05C55.31,35.61,55.27,38.26,55.27,41.06L55.27,41.06z M51.49,41
				c-0.34-0.01-0.67-0.03-1-0.04v-0.01c0-0.16,0.01-0.48,0.03-0.91c0.02-0.45,0.04-1.03,0.08-1.67c0.05-0.83,0.11-1.78,0.19-2.75
				c0.08-1.01,0.19-2.09,0.32-3.16c0.08-0.61,0.17-1.24,0.27-1.89l0,0h0c0.1-0.63,0.22-1.24,0.34-1.81c0.06-0.27,0.32-0.45,0.6-0.39
				c0.27,0.06,0.45,0.32,0.39,0.59c-0.12,0.57-0.23,1.17-0.33,1.77l0,0c-0.09,0.58-0.18,1.21-0.26,1.85
				c-0.13,1.06-0.24,2.13-0.32,3.12c-0.08,1.02-0.14,1.95-0.19,2.72c-0.04,0.67-0.06,1.22-0.08,1.65c-0.02,0.45-0.02,0.75-0.03,0.9
				L51.49,41L51.49,41z M47.72,40.79c-0.33-0.03-0.66-0.05-0.99-0.08c0-0.02,0-0.05,0-0.08c0.02-0.28,0.04-0.68,0.08-1.12l0-0.01
				c0.03-0.32,0.06-0.71,0.11-1.16c0.09-0.9,0.23-1.97,0.42-3.11c0.15-0.91,0.34-1.87,0.58-2.84c0.17-0.71,0.37-1.42,0.59-2.1
				c0.21-0.64,0.44-1.25,0.69-1.84c0.11-0.26,0.41-0.37,0.66-0.26c0.26,0.11,0.37,0.41,0.26,0.66c-0.24,0.56-0.46,1.15-0.66,1.75
				c-0.22,0.67-0.41,1.35-0.57,2.03c-0.23,0.93-0.41,1.87-0.56,2.77c-0.19,1.12-0.32,2.17-0.41,3.04c-0.04,0.4-0.08,0.79-0.11,1.15
				v0.01c-0.04,0.49-0.06,0.85-0.08,1.09C47.74,40.72,47.73,40.76,47.72,40.79L47.72,40.79z M43.95,40.43
				c0.03-0.06,0.06-0.13,0.07-0.2c0.03-0.26,0.06-0.56,0.1-0.87l0,0c0.03-0.28,0.08-0.58,0.13-0.9c0.14-0.87,0.33-1.91,0.61-3.03
				c0.22-0.89,0.5-1.83,0.84-2.76c0.27-0.74,0.58-1.49,0.93-2.2c0.32-0.65,0.68-1.28,1.08-1.87c0.16-0.23,0.1-0.54-0.13-0.7
				c-0.23-0.16-0.54-0.09-0.7,0.13c-0.43,0.63-0.81,1.3-1.15,1.99c-0.38,0.75-0.7,1.53-0.98,2.31c-0.35,0.97-0.64,1.94-0.87,2.85
				c-0.28,1.14-0.49,2.21-0.63,3.12c-0.05,0.33-0.1,0.64-0.13,0.92l0,0v0c-0.05,0.36-0.08,0.66-0.11,0.89
				c-0.01,0.07,0,0.13,0.02,0.19C43.34,40.36,43.65,40.4,43.95,40.43L43.95,40.43z M40.17,39.93c-0.24-0.04-0.48-0.08-0.72-0.11
				c-0.07-0.1-0.11-0.23-0.08-0.37c0.03-0.18,0.06-0.37,0.1-0.58l0-0.02c0.04-0.19,0.07-0.38,0.11-0.56
				c0.19-0.9,0.46-1.97,0.84-3.13c0.31-0.93,0.69-1.9,1.16-2.86c0.12-0.25,0.42-0.36,0.67-0.23c0.25,0.12,0.35,0.42,0.23,0.67
				c-0.45,0.93-0.81,1.86-1.1,2.74c-0.37,1.1-0.63,2.14-0.81,3.02c-0.04,0.2-0.08,0.38-0.11,0.54l0,0.02
				c-0.04,0.2-0.07,0.38-0.1,0.55C40.34,39.74,40.27,39.85,40.17,39.93z"/>
			<path class="st10" d="M65.14,47.46c1.78,0,3.39,0.68,4.6,1.8c-1.24,1.57-3.16,2.58-5.31,2.58c-1.78,0-3.39-0.68-4.6-1.8
				C61.07,48.47,62.99,47.46,65.14,47.46z"/>
			<path class="st11" d="M64.79,48.88c0.51,0,0.92,0.41,0.92,0.92c0,0.51-0.41,0.92-0.92,0.92c-0.51,0-0.92-0.41-0.92-0.92
				C63.87,49.29,64.28,48.88,64.79,48.88z"/>
			<path class="st12" d="M64.79,47.73c1.06,0,1.92,0.86,1.92,1.92c0,1.06-0.86,1.92-1.92,1.92c-1.06,0-1.92-0.86-1.92-1.92
				C62.87,48.59,63.73,47.73,64.79,47.73z"/>
			<path class="st13" d="M64.79,48.73c0.51,0,0.92,0.41,0.92,0.92c0,0.51-0.41,0.92-0.92,0.92c-0.51,0-0.92-0.41-0.92-0.92
				C63.87,49.15,64.28,48.73,64.79,48.73z"/>
			<path class="st10" d="M44.85,47.46c-1.78,0-3.39,0.68-4.6,1.8c1.24,1.57,3.16,2.58,5.31,2.58c1.78,0,3.39-0.68,4.6-1.8
				C48.93,48.47,47.01,47.46,44.85,47.46z"/>
			<path class="st11" d="M45.21,48.88c-0.51,0-0.92,0.41-0.92,0.92c0,0.51,0.41,0.92,0.92,0.92c0.51,0,0.92-0.41,0.92-0.92
				C46.13,49.29,45.72,48.88,45.21,48.88z"/>
			<path class="st12" d="M45.21,47.73c-1.06,0-1.92,0.86-1.92,1.92c0,1.06,0.86,1.92,1.92,1.92c1.06,0,1.92-0.86,1.92-1.92
				C47.13,48.59,46.27,47.73,45.21,47.73z"/>
			<path class="st13" d="M45.21,48.73c-0.51,0-0.92,0.41-0.92,0.92c0,0.51,0.41,0.92,0.92,0.92c0.51,0,0.92-0.41,0.92-0.92
				C46.13,49.15,45.72,48.73,45.21,48.73z"/>
			<path class="st14" d="M65.14,47.1c0.92,0,1.79,0.17,2.6,0.49c0.84,0.33,1.59,0.81,2.24,1.41c0.15,0.13,0.15,0.36,0.02,0.51
				c-0.66,0.83-1.51,1.52-2.47,1.98c-0.94,0.46-1.99,0.71-3.1,0.71c-0.91,0-1.79-0.17-2.6-0.49c-0.83-0.33-1.6-0.81-2.24-1.41
				c-0.15-0.13-0.15-0.36-0.02-0.51c0.66-0.83,1.51-1.52,2.48-1.98C62.98,47.36,64.03,47.1,65.14,47.1L65.14,47.1z M67.48,48.26
				c-0.72-0.28-1.51-0.44-2.34-0.44c-1,0-1.95,0.23-2.79,0.64c-0.77,0.38-1.46,0.9-2.02,1.54c0.52,0.44,1.12,0.79,1.76,1.04
				c0.72,0.28,1.51,0.44,2.34,0.44c1,0,1.95-0.23,2.79-0.64c0.77-0.38,1.46-0.9,2.02-1.54C68.72,48.87,68.13,48.51,67.48,48.26
				L67.48,48.26z M44.85,47.82c-0.82,0-1.61,0.16-2.34,0.44c-0.64,0.25-1.24,0.61-1.76,1.04c0.56,0.64,1.25,1.17,2.02,1.54
				c0.84,0.41,1.79,0.64,2.79,0.64c0.83,0,1.62-0.16,2.34-0.44c0.64-0.25,1.24-0.61,1.76-1.04c-0.56-0.64-1.25-1.17-2.02-1.54
				C46.8,48.05,45.86,47.82,44.85,47.82L44.85,47.82z M42.25,47.59c0.81-0.32,1.68-0.49,2.6-0.49c1.11,0,2.17,0.26,3.1,0.71
				c0.97,0.47,1.81,1.15,2.47,1.98c0.13,0.15,0.12,0.37-0.02,0.51c-0.65,0.6-1.41,1.08-2.24,1.41c-0.81,0.32-1.68,0.49-2.6,0.49
				c-1.11,0-2.16-0.26-3.1-0.71c-0.96-0.47-1.81-1.15-2.47-1.98c-0.13-0.15-0.12-0.37,0.02-0.51C40.66,48.4,41.42,47.92,42.25,47.59
				z"/>
		</g>
	</g>
</g>
</svg>
