<?xml version="1.0" encoding="utf-8"?>
<!-- Generator: Adobe Illustrator 24.0.0, SVG Export Plug-In . SVG Version: 6.00 Build 0)  -->
<svg version="1.1" id="Layer_1" xmlns="http://www.w3.org/2000/svg" xmlns:xlink="http://www.w3.org/1999/xlink" x="0px" y="0px"
	 viewBox="0 0 110 110" style="enable-background:new 0 0 110 110;" xml:space="preserve">
<style type="text/css">
	.st0{fill:#FFFFFF;}
	.st1{clip-path:url(#SVGID_2_);}
	.st2{fill-rule:evenodd;clip-rule:evenodd;fill:#C2A780;}
	.st3{fill-rule:evenodd;clip-rule:evenodd;fill:#C6B2CD;}
	.st4{fill-rule:evenodd;clip-rule:evenodd;fill:#A989B3;}
	.st5{fill-rule:evenodd;clip-rule:evenodd;fill:#EDA590;}
	.st6{fill-rule:evenodd;clip-rule:evenodd;fill:#FBC29F;}
	.st7{fill-rule:evenodd;clip-rule:evenodd;fill:#F27262;}
	.st8{fill-rule:evenodd;clip-rule:evenodd;fill:#763F33;}
	.st9{fill:#80351A;}
	.st10{fill-rule:evenodd;clip-rule:evenodd;fill:#F2F1E2;}
	.st11{fill-rule:evenodd;clip-rule:evenodd;fill:#3A0E00;}
	.st12{fill-rule:evenodd;clip-rule:evenodd;fill:#7BC589;}
	.st13{fill-rule:evenodd;clip-rule:evenodd;fill:#64625D;}
	.st14{fill-rule:evenodd;clip-rule:evenodd;fill:#824837;}
	.st15{fill-rule:evenodd;clip-rule:evenodd;fill:#F7DA93;}
	.st16{fill-rule:evenodd;clip-rule:evenodd;fill:#F5C684;}
</style>
<g>
	<path class="st0" d="M109.91,58.21C108.24,87.09,84.3,110,55,110C24.62,110,0,85.38,0,55C0,24.62,24.62,0,55,0
		c30.38,0,55,24.62,55,55C110,56.08,109.97,57.15,109.91,58.21"/>
	<g>
		<defs>
			<path id="SVGID_1_" d="M109.91,58.21C108.24,87.09,84.3,110,55,110C24.62,110,0,85.38,0,55C0,24.62,24.62,0,55,0
				c30.38,0,55,24.62,55,55C110,56.08,109.97,57.15,109.91,58.21"/>
		</defs>
		<clipPath id="SVGID_2_">
			<use xlink:href="#SVGID_1_"  style="overflow:visible;"/>
		</clipPath>
		<g class="st1">
			<rect x="33.3" y="44.46" class="st2" width="43.26" height="49.16"/>
			<path class="st3" d="M42.72,86.82h24.56c10.77,0,19.59,8.82,19.59,19.59V110H23.13v-3.58C23.13,95.64,31.95,86.82,42.72,86.82z"
				/>
			<path class="st4" d="M42.72,86.82c0.58,0,1.16,0,1.73,0c0.99,1.8,1.97,3.59,2.96,5.39c-3.73,1.41-5.04,5.33-6.75,10.42
				c-1.26-3.49-2.52-6.97-3.78-10.45c-0.49-1.31-0.98-2.62-1.47-3.93C37.67,87.33,40.14,86.82,42.72,86.82z"/>
			<path class="st5" d="M73.73,48.57c2.18-2.13,4.6-1.43,5.26,1.35c0.57,2.4,0.34,5.87-0.51,7.77c-1.37,3.02-3.62,3.98-4.99,3.33
				c0.67-2.42,0.45-4.75,0.37-7.93C73.83,51.71,73.78,50.16,73.73,48.57z"/>
			<path class="st6" d="M35.98,48.57c-2.18-2.13-4.31-1.43-4.97,1.35c-0.57,2.4-0.34,5.87,0.52,7.77c1.37,3.02,3.62,3.98,4.99,3.33
				c-0.67-2.42-0.74-4.75-0.66-7.93C35.89,51.71,35.93,50.16,35.98,48.57z"/>
			<path class="st6" d="M45.59,69.69c0,0,0,8.75,0,12.17c0,3.42-2.87,4.96-2.87,4.96c0,3.78,5.5,6.85,12.28,6.85
				c6.78,0,12.28-3.07,12.28-6.85c0,0-2.87-1.55-2.87-4.96c0-3.42,0-12.17,0-12.17L55,70.54L45.59,69.69z"/>
			<path class="st5" d="M45.59,72.32v9.35v0.18c0,3.42-2.87,4.96-2.87,4.96c0,2.19,1.84,4.13,4.7,5.39C51.2,86.73,46.4,87.3,55,87.3
				l0,0l0,0c2.26,0,6.15-2.84,9.41-5.63V69.69L55,70.54l-9.41-0.86V72.32z"/>
			<path class="st6" d="M55,80.43L55,80.43c-3.39,0-10.4-6.36-13.53-9.36c-1.33-1.27-1.93-1.82-2.85-3.47
				c-2.64-4.71-2.88-7.65-2.77-12.82c0.02-0.86,0.49-13.06,0.6-13.13C36.9,31.82,45.07,23.92,55,23.92c9.93,0,18.1,7.9,18.55,17.73
				c0.11,0.08,0.58,12.28,0.6,13.13c0.12,5.17-0.12,8.11-2.76,12.82c-0.92,1.66-1.53,2.2-2.85,3.47C65.4,74.07,58.39,80.43,55,80.43
				L55,80.43z"/>
			<path class="st5" d="M58.95,24.34c8.07,1.76,14.22,8.81,14.6,17.3c0.13,1.84,0.58,12.28,0.6,13.13
				c0.12,5.17-0.12,8.11-2.76,12.82c-0.92,1.66-1.53,2.2-2.85,3.47c-2.94,2.83-9.33,8.63-12.89,9.3
				c5.97-2.16,10.84-9.73,11.98-12.67c1.86-4.81,2.03-7.8,1.94-13.08c-0.02-0.87-0.33-11.52-0.42-13.4
				C68.9,33.5,63.71,26.95,58.95,24.34z"/>
			<path class="st5" d="M43.1,72.66c-0.75-0.68-1.08-1.07-1.63-1.59c-1.33-1.27-1.93-1.82-2.85-3.47
				c-2.64-4.71-2.88-7.65-2.77-12.82c0.02-0.86,0.47-11.29,0.6-13.13C36.9,31.82,45.07,23.92,55,23.92c9.93,0,18.1,7.9,18.55,17.73
				c0.05,0.72,0.15,2.77,0.26,5.05c-7.53-1.21-12.43-5.24-12.93-13.39v0.01c0,0-10.28-1.26-15.35,7.88
				C41.32,48.8,42.43,66.04,43.1,72.66z"/>
			<path class="st7" d="M62.11,66.89c0.01,0,0.02,0.01,0.02,0.01c0.14,0.07,0.21,0.21,0.2,0.36c0,0.03-0.01,0.06-0.02,0.08
				c-0.02,0.05-0.05,0.1-0.08,0.13c-1.17,1.36-2.35,2.73-3.55,4.07c-0.78,0.87-2.23,1.2-3.37,1.12c-1.14,0.09-2.59-0.24-3.37-1.12
				c-1.2-1.34-2.38-2.71-3.55-4.08c-0.03-0.02-0.05-0.06-0.06-0.09c-0.03-0.06-0.04-0.12-0.04-0.19c0.01-0.11,0.07-0.22,0.17-0.28
				c0.02-0.01,0.03-0.02,0.05-0.02c1.28-0.58,3.55-1.6,4.86-1.78c0.58-0.08,1.39-0.02,1.94,0.32c0.54-0.35,1.36-0.41,1.94-0.32
				C58.56,65.29,60.83,66.31,62.11,66.89z"/>
			<path class="st8" d="M57.56,46.08c-0.33,0.4,1.15,1.97,1.72,1.25c0.01-0.01,3-5.16,11.22-2.34c0.21,0.07,0.44-0.04,0.5-0.25
				c0.07-0.21-0.04-0.43-0.25-0.51C62.01,41.24,57.58,46.06,57.56,46.08z"/>
			<path class="st8" d="M52.44,46.08c0.33,0.4-1.15,1.97-1.72,1.25c-0.01-0.01-3.01-5.16-11.22-2.34c-0.21,0.07-0.44-0.04-0.5-0.25
				c-0.07-0.21,0.04-0.43,0.25-0.51C47.99,41.24,52.42,46.06,52.44,46.08z"/>
			<path class="st9" d="M55,61.79c-0.78,0-1.51-0.3-2.06-0.85c-0.2-0.2-0.2-0.52,0-0.71c0.2-0.2,0.52-0.2,0.71,0
				c0.72,0.72,1.98,0.72,2.7,0c0.2-0.2,0.52-0.2,0.71,0c0.19,0.2,0.19,0.52,0,0.71C56.51,61.49,55.78,61.79,55,61.79z"/>
			<path class="st9" d="M52.3,61.5c-0.51,0-0.99-0.2-1.35-0.56c-0.2-0.2-0.2-0.52,0-0.71c0.2-0.2,0.52-0.2,0.71,0
				c0.34,0.34,0.93,0.34,1.27,0c0.2-0.2,0.52-0.2,0.71,0c0.2,0.2,0.2,0.52,0,0.71C53.29,61.3,52.81,61.5,52.3,61.5z"/>
			<path class="st9" d="M57.7,61.49c-0.51,0-0.99-0.2-1.35-0.56c-0.19-0.2-0.19-0.52,0-0.71c0.2-0.2,0.52-0.2,0.71,0
				c0.34,0.34,0.93,0.34,1.27,0c0.2-0.2,0.51-0.2,0.71,0c0.2,0.2,0.2,0.52,0,0.71C58.69,61.3,58.21,61.49,57.7,61.49z"/>
			<path class="st10" d="M46.9,47.3c-1.95-0.42-3.94,0.22-5.01,1.48c0.14,1.51,1.46,2.86,3.41,3.27c1.94,0.42,3.94-0.22,5.01-1.48
				C50.17,49.06,48.84,47.71,46.9,47.3L46.9,47.3z M63.1,47.3c1.95-0.42,3.94,0.22,5.01,1.48c-0.14,1.51-1.46,2.86-3.41,3.27
				c-1.95,0.42-3.94-0.22-5.01-1.48C59.83,49.06,61.16,47.71,63.1,47.3z"/>
			<path class="st11" d="M63.91,48.45c0.51,0,0.92,0.41,0.92,0.92c0,0.51-0.41,0.92-0.92,0.92c-0.51,0-0.92-0.41-0.92-0.92
				C62.99,48.86,63.4,48.45,63.91,48.45z"/>
			<path class="st12" d="M63.91,47.3c1.06,0,1.92,0.86,1.92,1.92s-0.86,1.92-1.92,1.92c-1.06,0-1.92-0.86-1.92-1.92
				S62.84,47.3,63.91,47.3z"/>
			<path class="st13" d="M63.91,48.3c0.51,0,0.92,0.41,0.92,0.92c0,0.51-0.41,0.92-0.92,0.92c-0.51,0-0.92-0.41-0.92-0.92
				C62.99,48.71,63.4,48.3,63.91,48.3z"/>
			<path class="st11" d="M46.09,48.45c0.51,0,0.92,0.41,0.92,0.92c0,0.51-0.41,0.92-0.92,0.92c-0.51,0-0.92-0.41-0.92-0.92
				C45.17,48.86,45.59,48.45,46.09,48.45z"/>
			<path class="st12" d="M46.09,47.3c1.06,0,1.92,0.86,1.92,1.92s-0.86,1.92-1.92,1.92c-1.06,0-1.92-0.86-1.92-1.92
				S45.04,47.3,46.09,47.3z"/>
			<path class="st13" d="M46.09,48.3c0.51,0,0.92,0.41,0.92,0.92c0,0.51-0.41,0.92-0.92,0.92c-0.51,0-0.92-0.41-0.92-0.92
				C45.17,48.71,45.59,48.3,46.09,48.3z"/>
			<path class="st10" d="M60.96,67.51c-1.88-0.14-3.77-0.23-5.66-0.23s-3.77,0.09-5.66,0.23c1.05,0.77,2.1,1.53,3.15,2.3
				c0.91,0.66,4.11,0.66,5.02,0C58.87,69.04,59.91,68.27,60.96,67.51z"/>
			<path class="st5" d="M63.03,46.95c1.02-0.22,2.05-0.16,2.98,0.11c0.96,0.28,1.8,0.8,2.39,1.49l0.1,0.11l-0.01,0.15
				c-0.08,0.85-0.49,1.66-1.16,2.3c-0.64,0.61-1.51,1.08-2.53,1.29c-1.02,0.22-2.05,0.16-2.98-0.11c-0.96-0.28-1.8-0.8-2.39-1.49
				l-0.1-0.11l0.02-0.15c0.08-0.85,0.49-1.66,1.16-2.3C61.13,47.63,62,47.17,63.03,46.95L63.03,46.95z M65.8,47.75
				c-0.81-0.24-1.72-0.29-2.62-0.1c-0.89,0.19-1.64,0.59-2.18,1.11c-0.51,0.48-0.83,1.07-0.93,1.7c0.49,0.52,1.17,0.92,1.94,1.15
				c0.81,0.24,1.72,0.29,2.62,0.09c0.89-0.19,1.64-0.59,2.18-1.11c0.51-0.48,0.83-1.07,0.93-1.69
				C67.25,48.37,66.57,47.97,65.8,47.75L65.8,47.75z M46.82,47.65c-0.9-0.19-1.81-0.14-2.63,0.1c-0.77,0.23-1.45,0.62-1.94,1.15
				c0.1,0.62,0.42,1.21,0.93,1.69c0.54,0.52,1.29,0.92,2.19,1.11c0.9,0.19,1.81,0.14,2.62-0.09c0.77-0.23,1.45-0.63,1.94-1.15
				c-0.09-0.62-0.42-1.21-0.92-1.7C48.46,48.24,47.72,47.84,46.82,47.65L46.82,47.65z M44,47.06c0.92-0.27,1.95-0.33,2.97-0.11
				c1.03,0.22,1.9,0.68,2.53,1.29c0.67,0.64,1.08,1.44,1.16,2.3l0.02,0.15l-0.1,0.11c-0.59,0.69-1.43,1.21-2.39,1.49
				c-0.92,0.27-1.95,0.33-2.97,0.11c-1.03-0.22-1.9-0.68-2.53-1.29c-0.66-0.64-1.08-1.44-1.16-2.3l-0.01-0.15l0.1-0.11
				C42.2,47.85,43.04,47.34,44,47.06z"/>
			<path class="st14" d="M56,52.81c-0.3-0.98-1.69-0.98-2,0c-0.24,1.55-1.02,3.04-2.04,4.22c-4.24,4.94-11.31,4.2-13.99-1.88
				c-0.61-1.38-0.7-2.49-0.95-3.93c-0.1-0.56-0.23-1.1-0.44-1.63c-0.04-0.09-0.05-0.17-0.05-0.27v-1.81c0-0.32,0.21-0.59,0.51-0.68
				l1.37-0.38c5.45-1.53,9.83-1.69,14.51,1.93c1.27,0.98,2.89,0.98,4.16,0c4.68-3.62,9.06-3.46,14.51-1.93l1.37,0.38
				c0.31,0.09,0.51,0.36,0.51,0.68v1.81c0,0.09-0.02,0.18-0.05,0.27c-0.22,0.53-0.35,1.06-0.44,1.63c-0.24,1.44-0.34,2.55-0.95,3.93
				c-2.68,6.07-9.75,6.82-13.99,1.88C57.02,55.85,56.24,54.37,56,52.81L56,52.81z M59.51,55.98c1.56,1.82,3.76,2.96,6.19,2.46
				c3.07-0.64,4.92-3.49,5.34-6.44c0.32-2.26-0.4-4.07-2.83-4.52c-1.31-0.24-2.73-0.28-4.06-0.15c-1.48,0.15-3,0.53-4.3,1.29
				C56.94,50.33,57.59,53.74,59.51,55.98L59.51,55.98z M50.49,55.98c1.92-2.24,2.57-5.65-0.35-7.36c-1.29-0.76-2.82-1.14-4.3-1.29
				c-1.32-0.13-2.75-0.09-4.06,0.15c-2.43,0.44-3.15,2.26-2.83,4.52c0.42,2.95,2.27,5.8,5.34,6.44
				C46.73,58.94,48.93,57.8,50.49,55.98z"/>
			<path class="st15" d="M60.88,30.77c0,0-20.22-1.69-20.22,24.12c0,25.81,0,47.74,0,47.74l-7.36-5.94V42.05
				c0-11.98,9.71-21.7,21.7-21.7c3.84,0,7.57,1,10.88,2.92c6.47,3.76,10.82,10.76,10.82,18.78c0,0.81-0.05,4.48-0.13,5.27
				c-9.08-0.64-15.13-7.46-15.69-16.57V30.77z"/>
			<path class="st16" d="M60.86,30.77l0.02,0v0H60.86L60.86,30.77z M60.88,30.77c0.92-0.22,2.66-0.98,4.53-3.55
				c0.14,0.68-0.94,3.7-4.3,5.59C61,32.14,60.92,31.46,60.88,30.77z"/>
		</g>
	</g>
</g>
</svg>
