<?xml version="1.0" encoding="utf-8"?>
<!-- Generator: Adobe Illustrator 24.0.0, SVG Export Plug-In . SVG Version: 6.00 Build 0)  -->
<svg version="1.1" id="Layer_1" xmlns="http://www.w3.org/2000/svg" xmlns:xlink="http://www.w3.org/1999/xlink" x="0px" y="0px"
	 viewBox="0 0 223 43" style="enable-background:new 0 0 223 43;" xml:space="preserve">
<style type="text/css">
	.st0{fill:#429BD5;}
	.st1{fill:#2D64AE;}
	.st2{fill:#ED3024;}
	.st3{fill:#FAAD44;}
	.st4{fill:#231F20;}
</style>
<g>
	<g>
		<path class="st0" d="M91.62,21.65L74.13,4.16c4.64,4.64,4.64,12.17,0,16.81l-9.09,9.09l9.09,9.09c4.64,4.64,12.17,4.64,16.81,0
			l0.68-0.68C96.26,33.82,96.26,26.3,91.62,21.65z"/>
		<path class="st1" d="M21.31,21.31c-4.83-4.83-4.83-12.66,0-17.49l0,0c0.06-0.06,0.13-0.12,0.2-0.18L21.5,3.64l-0.53,0.53
			L3.48,21.65c-4.64,4.64-4.64,12.17,0,16.81l0.68,0.68c4.64,4.64,12.17,4.64,16.81,0l9.09-9.09L21.31,21.31z"/>
		<path class="st2" d="M74.13,4.16l-0.68-0.68c-4.64-4.64-12.17-4.64-16.81,0l-9.09,9.09l-6.12,6.12c-4.35,4.35-11.4,4.35-15.74,0
			c-4.35-4.35-4.35-11.4,0-15.74l2.72-2.83c-3.25,0.46-5.12,1.74-7.09,3.71l0,0c-4.83,4.83-4.83,12.66,0,17.49l17.49,17.49
			c0,0,0,0,0,0l0.34,0.34c4.64,4.64,12.17,4.64,16.81,0l18.17-18.17C78.77,16.33,78.77,8.8,74.13,4.16z"/>
		<path class="st2" d="M74.13,4.16l-0.68-0.68c-4.64-4.64-12.17-4.64-16.81,0l-9.09,9.09l-6.12,6.12c-4.35,4.35-11.4,4.35-15.74,0
			c-4.35-4.35-4.35-11.4,0-15.74l2.92-2.86c-3.46,0.47-5.33,1.77-7.3,3.73l0,0c-4.83,4.83-4.83,12.66,0,17.49l17.49,17.49
			c0,0,0,0,0,0l0.34,0.34c4.64,4.64,12.17,4.64,16.81,0l18.17-18.17C78.77,16.33,78.77,8.8,74.13,4.16z"/>
		<path class="st3" d="M38.47,3.48c-2.71-2.71-6.4-3.82-9.92-3.37l-0.25,0.23l-2.61,2.61c-4.35,4.35-4.35,11.4,0,15.74
			c4.35,4.35,11.4,4.35,15.74,0l6.12-6.12L38.47,3.48z"/>
	</g>
</g>
<g>
	<path class="st4" d="M123.86,21.31h2.13c1.08,0,1.84,0.73,1.91,1.78l1.05,17.5c0.06,1.24-0.67,2.03-1.91,2.03h-1.27
		c-1.05,0-1.81-0.73-1.87-1.78l-0.44-6.93l-2.64,7.43c-0.25,0.76-0.98,1.27-1.78,1.27h-2.45c-0.79,0-1.52-0.51-1.78-1.27l-2.83-7.78
		l-0.48,7.28c-0.09,1.08-0.83,1.78-1.91,1.78h-1.3c-1.21,0-1.97-0.83-1.91-2.03l1.18-17.5c0.06-1.08,0.83-1.78,1.91-1.78h2.13
		c0.79,0,1.52,0.51,1.78,1.24l4.41,12.1l4.29-12.07C122.33,21.82,123.06,21.31,123.86,21.31z"/>
	<path class="st4" d="M157.69,21.31h2.13c1.08,0,1.84,0.73,1.91,1.78l1.05,17.5c0.06,1.24-0.67,2.03-1.91,2.03h-1.27
		c-1.05,0-1.81-0.73-1.87-1.78l-0.44-6.93l-2.64,7.43c-0.25,0.76-0.99,1.27-1.78,1.27h-2.45c-0.79,0-1.52-0.51-1.78-1.27l-2.83-7.78
		l-0.48,7.28c-0.09,1.08-0.83,1.78-1.91,1.78h-1.3c-1.21,0-1.97-0.83-1.91-2.03l1.18-17.5c0.06-1.08,0.83-1.78,1.91-1.78h2.13
		c0.79,0,1.52,0.51,1.78,1.24l4.41,12.1l4.29-12.07C156.17,21.82,156.9,21.31,157.69,21.31z"/>
	<path class="st4" d="M184.26,34.12v-1.14c0-1.14,0.76-1.91,1.91-1.91h5.53c1.14,0,1.91,0.76,1.91,1.91v5.43
		c0,0.48-0.25,1.05-0.64,1.37c-1.08,0.83-2.48,1.65-3.59,2.03c-1.33,0.54-2.79,0.83-4.26,0.83c-1.4,0-2.76-0.29-4.13-0.83
		c-1.4-0.48-2.64-1.27-3.68-2.29c-1.02-1.05-1.84-2.22-2.38-3.49c-0.57-1.24-0.86-2.57-0.86-4.03c0-1.46,0.29-2.86,0.86-4.13
		c0.54-1.3,1.37-2.42,2.38-3.43c1.05-1.02,2.29-1.84,3.68-2.38c1.36-0.48,2.73-0.73,4.19-0.73c1.4,0,2.8,0.25,4.13,0.73
		c0.73,0.29,1.43,0.67,2.1,1.11c1.02,0.7,1.02,1.84,0.13,2.7l-1.24,1.21c-0.51,0.51-1.17,0.48-1.78,0.09
		c-0.35-0.22-0.73-0.41-1.08-0.54c-0.76-0.29-1.49-0.45-2.26-0.45c-0.79,0-1.56,0.16-2.26,0.45c-0.76,0.25-1.4,0.7-1.97,1.27
		c-0.6,0.54-1.05,1.14-1.3,1.84c-0.32,0.7-0.48,1.46-0.48,2.26c0,0.76,0.16,1.46,0.48,2.16c0.25,0.67,0.7,1.34,1.3,1.87
		c0.57,0.57,1.21,1.02,1.97,1.27c0.7,0.29,1.46,0.45,2.26,0.45c0.76,0,1.49-0.16,2.26-0.45c0.7-0.25,1.4-0.7,2-1.27h-3.27
		C185.02,36.02,184.26,35.26,184.26,34.12z"/>
	<path class="st4" d="M217.85,41.39l-1.08-2.86h-5.62l-1.11,2.89c-0.29,0.73-0.99,1.21-1.78,1.21h-1.4c-1.62,0-2.35-1.02-1.81-2.54
		l6.19-17.47c0.25-0.76,0.99-1.27,1.78-1.27h2.13c0.83,0,1.56,0.51,1.81,1.3l5.88,17.47c0.51,1.49-0.19,2.51-1.81,2.51h-1.4
		C218.87,42.63,218.14,42.15,217.85,41.39z M212.39,33.89l3.18-0.03l-1.52-3.87L212.39,33.89z"/>
</g>
</svg>
