<?xml version="1.0" encoding="utf-8"?>
<!-- Generator: Adobe Illustrator 24.0.0, SVG Export Plug-In . SVG Version: 6.00 Build 0)  -->
<svg version="1.1" id="Layer_1" xmlns="http://www.w3.org/2000/svg" xmlns:xlink="http://www.w3.org/1999/xlink" x="0px" y="0px"
	 viewBox="0 0 110 110" style="enable-background:new 0 0 110 110;" xml:space="preserve">
<style type="text/css">
	.st0{fill:#FFFFFF;}
	.st1{clip-path:url(#SVGID_2_);}
	.st2{fill-rule:evenodd;clip-rule:evenodd;fill:#FCCEB0;}
	.st3{fill-rule:evenodd;clip-rule:evenodd;fill:#EBB39B;}
	.st4{fill-rule:evenodd;clip-rule:evenodd;fill:#8BCCE3;}
	.st5{fill-rule:evenodd;clip-rule:evenodd;fill:#F2F1E2;}
	.st6{fill-rule:evenodd;clip-rule:evenodd;fill:#3A0E00;}
	.st7{fill-rule:evenodd;clip-rule:evenodd;fill:#836C66;}
	.st8{fill-rule:evenodd;clip-rule:evenodd;fill:#683227;}
	.st9{fill:#D0957D;}
	.st10{fill-rule:evenodd;clip-rule:evenodd;fill:#B7937B;}
	.st11{fill-rule:evenodd;clip-rule:evenodd;fill:#947761;}
	.st12{fill-rule:evenodd;clip-rule:evenodd;fill:#D0957D;}
</style>
<g>
	<path class="st0" d="M109.91,58.21C108.24,87.09,84.3,110,55,110C24.63,110,0,85.38,0,55S24.63,0,55,0c30.38,0,55,24.62,55,55
		C110,56.08,109.97,57.15,109.91,58.21"/>
	<g>
		<defs>
			<path id="SVGID_1_" d="M109.91,58.21C108.24,87.09,84.3,110,55,110C24.63,110,0,85.38,0,55S24.63,0,55,0c30.38,0,55,24.62,55,55
				C110,56.08,109.97,57.15,109.91,58.21"/>
		</defs>
		<clipPath id="SVGID_2_">
			<use xlink:href="#SVGID_1_"  style="overflow:visible;"/>
		</clipPath>
		<g class="st1">
			<path class="st2" d="M36.72,48.78c-1.87-0.89-3.37,0.11-3.7,2.46c-0.34,2.41,0.21,5.8,1.23,7.58c1.25,2.18,2.9,3.12,4.18,3.09
				c-0.15-0.8-0.28-1.6-0.41-2.41c-0.17-1.07-0.33-2.16-0.47-3.25c-0.15-1.09-0.28-2.18-0.41-3.26c-0.1-0.85-0.2-1.69-0.27-2.53
				C36.8,49.9,36.76,49.34,36.72,48.78z"/>
			<path class="st3" d="M73.28,48.78c1.87-0.89,3.37,0.11,3.7,2.46c0.34,2.41-0.21,5.8-1.23,7.58c-1.25,2.18-2.9,3.12-4.18,3.09
				c0.15-0.8,0.28-1.6,0.41-2.41c0.17-1.07,0.33-2.16,0.47-3.25c0.15-1.09,0.28-2.18,0.42-3.26c0.1-0.85,0.2-1.69,0.27-2.53
				C73.2,49.9,73.24,49.34,73.28,48.78z"/>
			<path class="st4" d="M37.32,87.13h35.36c10.63,0,19.33,8.7,19.33,19.33V110H17.99v-3.54C17.99,95.83,26.68,87.13,37.32,87.13z"/>
			<path class="st2" d="M43.72,70.22c0,0,0,8.64,0,12.01c0,3.37-2.83,4.9-2.83,4.9c0,8.87,28.21,8.87,28.21,0
				c0,0-2.83-1.53-2.83-4.9c0-3.37,0-12.01,0-12.01H43.72z"/>
			<path class="st3" d="M43.72,78.44c2.83,2.76,6.05,6.17,6.63,6.54c0.85,0.55,2.75,0.83,4.65,0.83c1.9,0,3.8-0.28,4.64-0.83
				c0.58-0.38,3.8-2.8,6.63-5.42v-9.33H43.72V78.44z"/>
			<path class="st2" d="M55,80.83c-1.9,0-3.8-0.28-4.65-0.83c-0.71-0.47-5.5-4.09-8.55-7.31c-1.19-1.26-2.14-3.53-2.57-5.27
				c-0.76-3.11-1.26-6.31-1.69-9.49c-0.15-1.09-0.28-2.18-0.41-3.26c-0.1-0.85-0.2-1.69-0.27-2.53c-0.08-0.84-0.14-1.67-0.18-2.49
				c-0.04-0.82-0.06-1.64-0.06-2.45c0-0.81,0.03-1.6,0.09-2.39c0.06-1.21,0.23-2.39,0.51-3.53c0.28-1.14,0.67-2.24,1.16-3.29
				c3.34-7.2,10-10.66,16.64-10.65c6.63-0.01,13.3,3.44,16.63,10.65c0.49,1.05,0.87,2.15,1.16,3.29c0.28,1.14,0.46,2.32,0.51,3.53
				c0.06,0.79,0.08,1.58,0.09,2.39c0,0.81-0.02,1.62-0.06,2.45c-0.04,0.82-0.1,1.65-0.18,2.49c-0.08,0.84-0.17,1.68-0.27,2.53
				c-0.13,1.08-0.27,2.17-0.41,3.26c-0.43,3.18-0.94,6.37-1.69,9.49c-0.42,1.74-1.38,4.01-2.57,5.27c-3.05,3.23-7.84,6.85-8.56,7.31
				C58.8,80.55,56.9,80.83,55,80.83z"/>
			<path class="st5" d="M42.94,51.57c2.95-2.51,5.44-2.07,8.3,0.32c-1.87,0.05-2.92,2.06-5.85,1.23
				C43.97,52.72,42.94,51.57,42.94,51.57z"/>
			<path class="st6" d="M47.09,50.86c0.49,0,0.88,0.4,0.88,0.88c0,0.49-0.4,0.89-0.88,0.89c-0.49,0-0.89-0.4-0.89-0.89
				C46.2,51.25,46.6,50.86,47.09,50.86z"/>
			<path class="st7" d="M47.09,49.75c1.02,0,1.85,0.83,1.85,1.85c0,1.02-0.83,1.85-1.85,1.85c-1.02,0-1.85-0.83-1.85-1.85
				C45.24,50.58,46.07,49.75,47.09,49.75z"/>
			<path class="st8" d="M47.09,50.71c0.49,0,0.88,0.4,0.88,0.88c0,0.49-0.4,0.89-0.88,0.89c-0.49,0-0.89-0.4-0.89-0.89
				C46.2,51.11,46.6,50.71,47.09,50.71z"/>
			<path class="st8" d="M41.81,49.74c-0.53,0.76-1.48,0.1-0.95-0.66c2.28-3.3,6.72-4.36,10.24-2.37c1.44,0.81,0.16,2.22-0.65,1.76
				C47.71,46.92,43.77,46.9,41.81,49.74z"/>
			<path class="st5" d="M67.06,51.57c-2.95-2.51-5.45-2.07-8.3,0.32c1.87,0.05,2.92,2.06,5.84,1.23
				C66.03,52.72,67.06,51.57,67.06,51.57z"/>
			<path class="st6" d="M62.91,50.86c-0.49,0-0.88,0.4-0.88,0.88c0,0.49,0.4,0.89,0.88,0.89c0.49,0,0.88-0.4,0.88-0.89
				C63.79,51.25,63.4,50.86,62.91,50.86z"/>
			<path class="st7" d="M62.91,49.75c-1.02,0-1.85,0.83-1.85,1.85c0,1.02,0.83,1.85,1.85,1.85c1.02,0,1.85-0.83,1.85-1.85
				C64.76,50.58,63.93,49.75,62.91,49.75z"/>
			<path class="st8" d="M62.91,50.71c-0.49,0-0.88,0.4-0.88,0.88c0,0.49,0.4,0.89,0.88,0.89c0.49,0,0.88-0.4,0.88-0.89
				C63.79,51.11,63.4,50.71,62.91,50.71z"/>
			<path class="st8" d="M68.19,49.74c0.53,0.76,1.48,0.1,0.95-0.66c-2.28-3.3-6.72-4.36-10.24-2.37c-1.44,0.81-0.16,2.22,0.65,1.76
				C62.28,46.92,66.23,46.9,68.19,49.74z"/>
			<path class="st9" d="M55,63.21c-0.68,0-1.33-0.22-1.87-0.62c-0.76,0.47-1.84,0.36-2.49-0.29c-0.2-0.19-0.19-0.51,0-0.7
				c0.19-0.19,0.51-0.19,0.7,0c0.38,0.38,1.04,0.39,1.43,0.02c0-0.01,0.01-0.01,0.01-0.02c0.1-0.1,0.22-0.15,0.35-0.15l0,0l0,0
				c0.13,0,0.26,0.05,0.35,0.15c0,0.01,0.01,0.01,0.02,0.02c0.8,0.78,2.18,0.78,2.98-0.02c0.19-0.2,0.51-0.2,0.7,0
				c0.39,0.39,1.06,0.39,1.45,0c0.19-0.2,0.51-0.2,0.7,0c0.19,0.19,0.19,0.51,0,0.7c-0.65,0.65-1.72,0.76-2.49,0.29
				C56.33,63,55.68,63.21,55,63.21z"/>
			<path class="st3" d="M58.71,80.4c0.38-0.11,0.7-0.24,0.93-0.4c0.72-0.47,5.5-4.09,8.56-7.31c1.19-1.26,2.14-3.53,2.57-5.27
				c0.76-3.11,1.26-6.31,1.69-9.49c0.15-1.09,0.28-2.18,0.41-3.26c0.1-0.85,0.2-1.69,0.27-2.53c0.08-0.84,0.14-1.67,0.18-2.49
				c0.04-0.82,0.06-1.64,0.06-2.45c0-0.81-0.03-1.6-0.09-2.39c-0.06-1.21-0.23-2.39-0.51-3.53c-0.28-1.14-0.67-2.24-1.16-3.29
				c-2.46-5.3-6.72-8.58-11.44-9.93c3.11,1.62,8.27,2.23,8.5,8.98c0.04,1.13-0.66,5.47-0.28,6.59c2.03,5.94,3,8.13,0.78,12.13
				c-1.58,2.85-1,9.04-1.57,12.22C66.65,73.27,62.53,76.78,58.71,80.4z"/>
			<path class="st10" d="M37.67,48.03c0.61-0.56,2.26-3.1,2.6-3.55c0.35-0.45-1.77-5.59,1.98-7.49c3.76-1.89,12.92,1.56,12.92,1.56
				s8.8-3.45,12.55-1.56c3.76,1.89,1.63,7.02,1.98,7.49c0.35,0.46,2.24,3.22,2.67,3.61c0.02,0.34,0.04,0.67,0.06,1.01
				c0.03,2.98,0.06,5.5,0.09,8.31c0.12-0.92,0.23-1.83,0.35-2.74c0.1-0.85,0.2-1.69,0.27-2.53c0.08-0.84,0.14-1.67,0.18-2.49
				c0.04-0.82,0.06-1.64,0.06-2.45c0-0.81-0.03-1.6-0.09-2.39c-0.06-1.21-0.23-2.39-0.51-3.53c-0.28-1.14-0.67-2.24-1.16-3.29
				c-3.34-7.2-10-10.66-16.63-10.65c-6.63-0.01-13.3,3.44-16.64,10.65c-0.49,1.05-0.87,2.15-1.16,3.29
				c-0.28,1.14-0.45,2.32-0.51,3.53c-0.06,0.79-0.08,1.58-0.09,2.39c0,0.81,0.02,1.62,0.06,2.45c0.04,0.82,0.1,1.65,0.18,2.49
				c0.08,0.84,0.17,1.68,0.27,2.53c0.1,0.86,0.21,1.73,0.33,2.6C37.48,54.33,37.52,52.07,37.67,48.03z"/>
			<path class="st11" d="M68.67,37.64c2.41,2.21,0.72,6.42,1.04,6.84c0.35,0.46,2.24,3.22,2.67,3.61c0.02,0.34,0.04,0.67,0.06,1.01
				c0.03,2.98,0.06,5.5,0.09,8.31c0.12-0.92,0.23-1.83,0.35-2.74c0.1-0.85,0.2-1.69,0.27-2.53c0.08-0.84,0.14-1.67,0.18-2.49
				c0.04-0.82,0.06-1.64,0.06-2.45c0-0.81-0.03-1.6-0.09-2.39c-0.06-1.21-0.23-2.39-0.51-3.53c-0.28-1.14-0.67-2.24-1.16-3.29
				c-0.84-1.82-1.9-3.4-3.11-4.74c0.07,1.23,0.12,2.5,0.17,3.8C68.7,37.19,68.69,37.4,68.67,37.64z"/>
			<path class="st9" d="M63.26,53.67L63.26,53.67c-1.14,0-1.98-0.43-2.72-0.81c-0.62-0.32-1.16-0.6-1.8-0.62
				c-0.15-0.01-0.28-0.1-0.33-0.24c-0.05-0.14-0.01-0.29,0.11-0.39c1.7-1.43,3.19-2.09,4.66-2.09c1.36,0,2.7,0.58,4.1,1.77
				c0.07,0.06,0.12,0.15,0.13,0.25c0,0.1-0.03,0.19-0.09,0.26c-0.04,0.05-1.12,1.23-2.62,1.65C64.19,53.6,63.72,53.67,63.26,53.67z
				 M59.6,51.67c0.45,0.13,0.86,0.35,1.27,0.56c0.7,0.36,1.42,0.73,2.39,0.73l0,0c0.4,0,0.8-0.06,1.25-0.18
				c0.9-0.26,1.64-0.84,2.02-1.18C64.18,49.74,62.18,49.75,59.6,51.67z M46.74,53.67c-0.46,0-0.93-0.07-1.44-0.21
				c-1.51-0.42-2.58-1.61-2.63-1.65c-0.06-0.07-0.1-0.16-0.09-0.26c0.01-0.1,0.05-0.19,0.13-0.25c1.4-1.19,2.74-1.77,4.1-1.77
				c1.47,0,2.95,0.66,4.66,2.09c0.11,0.09,0.15,0.25,0.11,0.39c-0.05,0.14-0.18,0.23-0.33,0.24c-0.64,0.02-1.18,0.29-1.8,0.62
				C48.72,53.24,47.88,53.67,46.74,53.67z M43.47,51.59c0.38,0.34,1.12,0.93,2.02,1.19c0.44,0.12,0.85,0.18,1.25,0.18
				c0.96,0,1.69-0.37,2.39-0.73c0.4-0.21,0.82-0.42,1.27-0.56C47.81,49.74,45.82,49.74,43.47,51.59z"/>
			<path class="st12" d="M49.48,69.04c0,0,1.54-0.68,2.53-1.22c1-0.54,1.99-0.55,2.49-0.27c0.22,0.13,0.38,0.17,0.49,0.18
				c0.11-0.01,0.27-0.05,0.49-0.18c0.5-0.29,1.5-0.27,2.49,0.27c1,0.54,2.53,1.22,2.53,1.22c-1.04,1.53-1.93,1.67-3.69,1.94
				c-0.62,0.1-1.45-0.02-1.82-0.08c-0.37,0.06-1.21,0.17-1.82,0.08C51.42,70.71,50.52,70.57,49.48,69.04z"/>
			<path class="st11" d="M45.95,84.18V72.96c0-0.82,0-1.64,0-2.46c0-0.82,0-1.64,0-2.47V68c0-0.44,0.04-0.92,0.19-1.34
				c0.09-0.27,0.25-0.54,0.47-0.72c0.27-0.21,2.29-0.63,2.69-0.72c0.91-0.21,2.39-0.51,3.21-0.91c0.54-0.27,1.19-0.45,1.79-0.27
				c0.22,0.07,0.47,0.2,0.62,0.38c0.04,0.05,0.06,0.1,0.07,0.17c0-0.07,0.02-0.12,0.06-0.17c0.15-0.18,0.4-0.32,0.62-0.38
				c0.6-0.18,1.25,0.01,1.79,0.27c0.82,0.4,2.3,0.7,3.21,0.91c0.41,0.09,2.43,0.51,2.7,0.72c0.23,0.18,0.38,0.45,0.47,0.72
				c0.15,0.42,0.19,0.9,0.19,1.34v0.03c0,0.82,0,1.64,0,2.47c0,0.82,0,1.64,0,2.46v11.22c0,1.15-2.09,1.64-2.09,0.39v-9.32
				c0.02-0.79,0.04-1.58,0.04-2.36c0-1.92-0.39-4.01-2.15-5.1c-2.13-1.32-7.56-1.32-9.69,0c-1.76,1.09-2.15,3.18-2.15,5.1
				c0,0.78,0.02,1.57,0.04,2.36v9.32C48.05,85.82,45.95,85.33,45.95,84.18z"/>
		</g>
	</g>
</g>
</svg>
